<svg viewBox="0 0 319 239" fill="none" xmlns="http://www.w3.org/2000/svg"><path d="M18.9727 107C7.98633 107 0.662109 99.4561 0.662109 88.1035V20.4277C0.662109 9.0752 7.98633 1.53125 18.9727 1.53125H49.0752C60.208 1.53125 67.5322 8.92871 67.5322 20.1348C67.5322 33.0254 59.6221 37.3467 44.9736 37.3467C40.7256 37.3467 36.3311 36.6875 33.8408 35.8818C33.0352 35.5889 32.083 35.3691 31.4971 35.3691C30.3252 35.3691 29.373 36.248 29.373 37.4932C29.373 38.665 30.3252 39.3975 31.2041 39.6904C34.3535 40.7158 39.627 41.7412 44.9736 41.7412C49.8076 41.7412 54.7148 40.9355 57.0586 40.2764C61.8193 42.4004 65.335 47.4541 65.335 54.2656C65.335 61.0039 61.8193 66.1309 57.0586 68.2549C54.7148 67.5957 49.8076 66.79 44.9736 66.79C39.627 66.79 34.3535 67.7422 31.2041 68.8408C30.3252 69.1338 29.373 69.793 29.373 71.0381C29.373 72.2832 30.3252 73.1621 31.4971 73.1621C32.083 73.1621 33.0352 72.8691 33.8408 72.6494C36.3311 71.7705 40.7256 71.1846 44.9736 71.1846C59.6221 71.1846 67.5322 75.5059 67.5322 88.3965C67.5322 99.6025 60.208 107 49.0752 107H18.9727Z" fill="url(#gradient)"></path><path d="M133.23 108.465C129.495 108.465 125.906 107.073 123.343 105.096C127.811 101.287 131.985 94.4023 131.985 91.4727C131.985 90.2275 131.18 89.2754 129.935 89.2754C128.836 89.2754 128.25 89.9346 127.737 91.2529C123.416 102.166 114.041 108.465 101.443 108.465C82.8398 108.465 68.4844 93.4502 68.4844 66.6436C68.4844 39.9834 82.6201 24.9688 103.128 24.9688C113.968 24.9688 123.562 32.4395 127.591 42.4004C128.03 43.4258 128.763 43.9385 129.788 43.9385C130.887 43.9385 131.766 42.9863 131.766 41.7412C131.766 41.0088 131.399 40.1299 131.106 39.4707C130.081 37.0537 125.54 27.5322 114.334 22.8447V17.791C114.334 7.46387 121.878 0.432617 133.23 0.432617C144.363 0.432617 152.2 7.75684 152.2 18.5967V90.8135C152.2 101.141 144.656 108.465 133.23 108.465ZM103.934 77.4834C103.934 78.875 104.593 79.9736 106.131 79.9736C107.669 79.9736 108.328 78.875 108.328 77.4834V55.3643C108.328 53.8994 107.669 52.874 106.131 52.874C104.593 52.874 103.934 53.8994 103.934 55.3643V77.4834Z" fill="url(#gradient)"></path><path d="M192.63 126.043C168.826 126.043 157.4 119.451 157.4 108.978C157.4 104.144 159.744 100.555 163.333 98.2842C171.023 102.312 180.545 104.144 193.069 104.144C201.785 104.144 208.011 102.825 210.721 102.093C212.112 101.727 212.845 101.067 212.845 99.8955C212.845 98.7236 211.893 97.7715 210.647 97.7715C209.036 97.7715 202.737 99.749 193.069 99.749C170.218 99.749 157.4 92.9375 157.4 81.292C157.4 75.2861 160.916 70.4521 166.629 68.0352C160.037 64.0068 156.302 57.5615 156.302 49.4316C156.302 34.5635 170.877 24.9688 193.655 24.9688C198.709 24.9688 203.47 25.5547 208.816 27.3857C208.963 20.8672 213.431 13.6162 222.659 13.6162C231.668 13.6162 236.868 20.1348 236.868 27.3857C236.868 36.541 227.859 44.4512 219.437 44.4512C217.02 44.4512 216.067 43.8652 214.749 43.8652C213.577 43.8652 212.625 44.7441 212.625 45.916C212.625 47.8203 215.701 48.8457 219.583 48.8457C223.172 48.8457 227.42 47.5273 230.276 45.623C230.862 47.0879 231.155 49.2852 231.155 51.5557C231.155 66.4238 215.188 75.7256 198.27 75.7256C191.604 75.7256 188.455 74.5537 186.917 74.5537C185.599 74.5537 184.646 75.4326 184.646 76.6777C184.646 77.6299 185.379 78.5088 186.258 78.8018C188.528 79.5342 193.802 80.1201 198.27 80.1201C204.788 80.1201 214.749 78.0693 221.341 74.1143C230.203 78.5088 234.451 87.2246 234.451 98.6504C234.451 115.716 218.997 126.043 192.63 126.043ZM191.385 55.3643C191.385 56.7559 192.044 57.8545 193.582 57.8545C195.12 57.8545 195.779 56.7559 195.779 55.3643V44.9639C195.779 43.499 195.12 42.4736 193.582 42.4736C192.044 42.4736 191.385 43.499 191.385 44.9639V55.3643Z" fill="url(#gradient)"></path><path d="M259.061 107C248.074 107 240.75 99.4561 240.75 88.1035V20.4277C240.75 9.0752 248.074 1.53125 259.061 1.53125H289.163C300.296 1.53125 307.62 8.92871 307.62 20.1348C307.62 33.0254 299.71 37.3467 285.062 37.3467C280.813 37.3467 276.419 36.6875 273.929 35.8818C273.123 35.5889 272.171 35.3691 271.585 35.3691C270.413 35.3691 269.461 36.248 269.461 37.4932C269.461 38.665 270.413 39.3975 271.292 39.6904C274.441 40.7158 279.715 41.7412 285.062 41.7412C289.896 41.7412 294.803 40.9355 297.146 40.2764C301.907 42.4004 305.423 47.4541 305.423 54.2656C305.423 61.0039 301.907 66.1309 297.146 68.2549C294.803 67.5957 289.896 66.79 285.062 66.79C279.715 66.79 274.441 67.7422 271.292 68.8408C270.413 69.1338 269.461 69.793 269.461 71.0381C269.461 72.2832 270.413 73.1621 271.585 73.1621C272.171 73.1621 273.123 72.8691 273.929 72.6494C276.419 71.7705 280.813 71.1846 285.062 71.1846C299.71 71.1846 307.62 75.5059 307.62 88.3965C307.62 99.6025 300.296 107 289.163 107H259.061Z" fill="url(#gradient)"></path><path d="M18.9727 237C7.91309 237 0.662109 229.456 0.662109 218.104V150.428C0.662109 139.075 7.98633 131.531 18.9727 131.531H41.8975C63.5771 131.531 78.958 144.056 78.958 161.854C78.958 174.891 70.9014 183.094 56.4727 186.17C54.9346 186.536 54.0557 187.269 54.0557 188.587C54.0557 189.832 55.0811 190.711 56.3262 190.711C56.9854 190.711 58.8164 190.271 60.5742 189.759C62.8447 189.173 66.5068 187.562 69.583 186.097C75.4424 190.271 78.8115 196.937 78.8115 205.945C78.8115 224.842 64.3828 237 41.8975 237H18.9727ZM36.4775 212.977C36.4775 214.368 37.1367 215.467 38.6748 215.467C40.2129 215.467 40.8721 214.368 40.8721 212.977V195.691C40.8721 194.227 40.2129 193.201 38.6748 193.201C37.1367 193.201 36.4775 194.227 36.4775 195.691V212.977ZM36.4775 173.206C36.4775 174.598 37.1367 175.696 38.6748 175.696C40.2129 175.696 40.8721 174.598 40.8721 173.206V155.921C40.8721 154.456 40.2129 153.431 38.6748 153.431C37.1367 153.431 36.4775 154.456 36.4775 155.921V173.206Z" fill="url(#gradient)"></path><path d="M108.108 238.465C93.5332 238.465 82.4736 227.479 82.4736 211.438C82.4736 205.359 84.085 201.258 87.1611 197.229C90.0176 198.768 93.7529 199.5 97.0488 199.5C107.962 199.5 116.238 190.491 116.238 181.336C116.238 179.212 115.433 178.333 114.114 178.333C112.796 178.333 112.063 179.065 111.917 180.97C111.478 189.319 104.812 195.105 96.9756 195.105C88.6992 195.105 81.2285 189.832 81.2285 180.53C81.2285 166.102 98.5869 154.969 120.999 154.969C143.558 154.969 158.133 168.812 158.133 190.125V220.301C158.133 230.921 150.589 238.465 139.163 238.465C134.915 238.465 129.861 236.707 127.811 234.29C130.96 230.921 134.329 225.281 135.794 221.399C136.087 220.521 136.233 220.008 136.233 219.568C136.233 218.25 135.208 217.444 134.183 217.444C133.377 217.444 132.571 217.737 131.912 219.275C127.664 229.969 120.193 238.465 108.108 238.465ZM119.461 209.314C119.461 210.706 120.12 211.805 121.658 211.805C123.196 211.805 123.855 210.706 123.855 209.314V200.379C123.855 198.914 123.196 197.889 121.658 197.889C120.12 197.889 119.461 198.914 119.461 200.379V209.314Z" fill="url(#gradient)"></path><path d="M188.675 238.465C174.1 238.465 163.04 227.479 163.04 211.438C163.04 205.359 164.651 201.258 167.728 197.229C170.584 198.768 174.319 199.5 177.615 199.5C188.528 199.5 196.805 190.491 196.805 181.336C196.805 179.212 195.999 178.333 194.681 178.333C193.362 178.333 192.63 179.065 192.483 180.97C192.044 189.319 185.379 195.105 177.542 195.105C169.266 195.105 161.795 189.832 161.795 180.53C161.795 166.102 179.153 154.969 201.565 154.969C224.124 154.969 238.699 168.812 238.699 190.125V220.301C238.699 230.921 231.155 238.465 219.729 238.465C215.481 238.465 210.428 236.707 208.377 234.29C211.526 230.921 214.896 225.281 216.36 221.399C216.653 220.521 216.8 220.008 216.8 219.568C216.8 218.25 215.774 217.444 214.749 217.444C213.943 217.444 213.138 217.737 212.479 219.275C208.23 229.969 200.76 238.465 188.675 238.465ZM200.027 209.314C200.027 210.706 200.687 211.805 202.225 211.805C203.763 211.805 204.422 210.706 204.422 209.314V200.379C204.422 198.914 203.763 197.889 202.225 197.889C200.687 197.889 200.027 198.914 200.027 200.379V209.314Z" fill="url(#gradient)"></path><path d="M280.887 238.465C259.866 238.465 242.581 229.676 242.581 215.54C242.581 206.165 249.026 199.573 257.889 199.573C262.063 199.573 266.458 199.793 270.633 200.818C275.247 201.99 279.788 203.528 281.839 204.407C282.864 204.847 284.622 205.945 285.867 205.945C286.966 205.945 287.918 205.066 287.918 203.895C287.918 202.942 287.405 202.283 286.087 201.551C283.816 200.379 278.177 198.328 272.391 196.717C269.9 196.058 265.799 195.325 258.182 195.325C251.004 189.026 245.145 179.651 245.145 166.175C245.145 147.425 257.522 130.066 282.132 130.066C305.276 130.066 318.533 140.101 318.533 151.966C318.533 161.268 312.234 167.347 303.372 167.347C299.197 167.347 294.729 167.054 290.628 166.028C286.014 164.93 281.473 163.318 279.422 162.439C278.323 162 276.639 160.975 275.394 160.975C274.295 160.975 273.343 161.854 273.343 163.025C273.343 163.904 273.782 164.637 275.101 165.296C277.518 166.541 283.084 168.592 288.797 170.13C291.214 170.789 294.729 171.521 302.347 171.595C309.964 176.502 318.094 188.074 318.094 202.356C318.094 221.399 306.229 238.465 280.887 238.465Z" fill="url(#gradient)"></path><defs><linearGradient id="gradient" x1="-3" y1="252" x2="250.313" y2="-66.5893" gradientUnits="userSpaceOnUse">
  <stop stop-color="#ae80ff"/>
<stop offset="0.29" stop-color="#cb48e5"/>
<stop offset="0.43" stop-color="#e750ce"/>
<stop offset="0.52" stop-color="#f75eba"/>
<stop offset="0.71" stop-color="#ff75ac"/>
<stop offset="1" stop-color="#ff75ac"/>
  </linearGradient></defs></svg>
