<svg width="28" height="24" viewBox="0 0 28 24" fill="none" xmlns="http://www.w3.org/2000/svg">
  <path fill-rule="evenodd" clip-rule="evenodd" d="M0.666626 4C0.666626 2.93913 1.08805 1.92172 1.8382 1.17157C2.58834 0.421427 3.60576 0 4.66663 0H23.3333C24.3942 0 25.4116 0.421427 26.1617 1.17157C26.9119 1.92172 27.3333 2.93913 27.3333 4V20C27.3333 21.0609 26.9119 22.0783 26.1617 22.8284C25.4116 23.5786 24.3942 24 23.3333 24H4.66663C3.60576 24 2.58834 23.5786 1.8382 22.8284C1.08805 22.0783 0.666626 21.0609 0.666626 20V4ZM7.33329 5.33333C6.97967 5.33333 6.64053 5.47381 6.39048 5.72386C6.14044 5.97391 5.99996 6.31304 5.99996 6.66667V12C5.99996 12.3536 6.14044 12.6928 6.39048 12.9428C6.64053 13.1929 6.97967 13.3333 7.33329 13.3333H12.6666C13.0202 13.3333 13.3594 13.1929 13.6094 12.9428C13.8595 12.6928 14 12.3536 14 12V6.66667C14 6.31304 13.8595 5.97391 13.6094 5.72386C13.3594 5.47381 13.0202 5.33333 12.6666 5.33333H7.33329ZM8.66663 10.6667V8H11.3333V10.6667H8.66663ZM18 5.33333C17.6463 5.33333 17.3072 5.47381 17.0572 5.72386C16.8071 5.97391 16.6666 6.31304 16.6666 6.66667C16.6666 7.02029 16.8071 7.35943 17.0572 7.60948C17.3072 7.85952 17.6463 8 18 8H20.6666C21.0202 8 21.3594 7.85952 21.6094 7.60948C21.8595 7.35943 22 7.02029 22 6.66667C22 6.31304 21.8595 5.97391 21.6094 5.72386C21.3594 5.47381 21.0202 5.33333 20.6666 5.33333H18ZM18 10.6667C17.6463 10.6667 17.3072 10.8071 17.0572 11.0572C16.8071 11.3072 16.6666 11.6464 16.6666 12C16.6666 12.3536 16.8071 12.6928 17.0572 12.9428C17.3072 13.1929 17.6463 13.3333 18 13.3333H20.6666C21.0202 13.3333 21.3594 13.1929 21.6094 12.9428C21.8595 12.6928 22 12.3536 22 12C22 11.6464 21.8595 11.3072 21.6094 11.0572C21.3594 10.8071 21.0202 10.6667 20.6666 10.6667H18ZM7.33329 16C6.97967 16 6.64053 16.1405 6.39048 16.3905C6.14044 16.6406 5.99996 16.9797 5.99996 17.3333C5.99996 17.687 6.14044 18.0261 6.39048 18.2761C6.64053 18.5262 6.97967 18.6667 7.33329 18.6667H20.6666C21.0202 18.6667 21.3594 18.5262 21.6094 18.2761C21.8595 18.0261 22 17.687 22 17.3333C22 16.9797 21.8595 16.6406 21.6094 16.3905C21.3594 16.1405 21.0202 16 20.6666 16H7.33329Z" fill="#fff"/>
</svg>
