<svg width="28" height="28" viewBox="0 0 28 28" fill="none" xmlns="http://www.w3.org/2000/svg">
<path d="M10.3333 27.3334L9.79998 23.0667C9.51109 22.9556 9.23864 22.8222 8.98264 22.6667C8.72664 22.5111 8.47687 22.3445 8.23331 22.1667L4.26664 23.8334L0.599976 17.5L4.03331 14.9C4.01109 14.7445 3.99998 14.5942 3.99998 14.4494V13.5507C3.99998 13.4058 4.01109 13.2556 4.03331 13.1L0.599976 10.5L4.26664 4.16669L8.23331 5.83335C8.47775 5.65558 8.73331 5.48891 8.99998 5.33335C9.26664 5.1778 9.53331 5.04446 9.79998 4.93335L10.3333 0.666687H17.6666L18.2 4.93335C18.4889 5.04446 18.7613 5.1778 19.0173 5.33335C19.2733 5.48891 19.5231 5.65558 19.7666 5.83335L23.7333 4.16669L27.4 10.5L23.9666 13.1C23.9889 13.2556 24 13.4058 24 13.5507V14.4494C24 14.5942 23.9778 14.7445 23.9333 14.9L27.3666 17.5L23.7 23.8334L19.7666 22.1667C19.5222 22.3445 19.2666 22.5111 19 22.6667C18.7333 22.8222 18.4666 22.9556 18.2 23.0667L17.6666 27.3334H10.3333ZM14.0666 18.6667C15.3555 18.6667 16.4555 18.2111 17.3666 17.3C18.2778 16.3889 18.7333 15.2889 18.7333 14C18.7333 12.7111 18.2778 11.6111 17.3666 10.7C16.4555 9.78891 15.3555 9.33335 14.0666 9.33335C12.7555 9.33335 11.6498 9.78891 10.7493 10.7C9.84887 11.6111 9.39909 12.7111 9.39998 14C9.39998 15.2889 9.84975 16.3889 10.7493 17.3C11.6489 18.2111 12.7546 18.6667 14.0666 18.6667Z" fill="url(#paint0_linear_2307_10)"/>
<defs>
<linearGradient id="paint0_linear_2307_10" x1="0.599976" y1="27.3334" x2="27.2663" y2="0.533689" gradientUnits="userSpaceOnUse">
<stop stop-color="#FD684C"/>
<stop offset="0.25" stop-color="#FA7000"/>
<stop offset="0.5" stop-color="#F5A300"/>
<stop offset="0.75" stop-color="#EBD300"/>
<stop offset="1" stop-color="#D9FF1A"/>
</linearGradient>
</defs>
</svg>
