<svg viewBox="0 0 877 372" fill="none" xmlns="http://www.w3.org/2000/svg">
<path d="M199.071 111.465C172.045 111.465 156.737 94.3262 156.737 69.4238C156.737 44.9609 171.459 27.9688 195.922 27.9688C219.579 27.9688 234.594 41.3721 234.594 58.584C234.594 68.1787 231.298 73.5986 224.999 77.2607C219.726 77.9932 210.424 78.5059 205.736 78.5059C195.702 78.5059 192.26 76.9678 190.795 76.9678C189.55 76.9678 188.598 77.8467 188.598 79.0186C188.598 80.1172 189.33 80.9229 190.502 81.2891C193.139 82.0947 198.998 82.9004 205.736 82.9004C210.497 82.9004 218.627 82.0215 222.509 82.0215C228.368 82.0215 232.836 85.9033 232.836 93.0811C232.836 103.701 218.554 111.465 199.071 111.465ZM193.505 60.6348C193.505 62.0264 194.164 63.125 195.702 63.125C197.24 63.125 197.899 62.0264 197.899 60.6348V50.2344C197.899 48.7695 197.24 47.7441 195.702 47.7441C194.164 47.7441 193.505 48.7695 193.505 50.2344V60.6348Z" fill="url(#gradient)"/>
<path d="M257.592 111.099C246.166 111.099 238.622 102.969 238.622 91.3965V31.9238C238.622 13.833 250.854 3.06641 266.015 3.06641C280.59 3.06641 288.427 11.3428 288.427 21.7432C288.427 30.3125 282.86 36.9775 272.24 36.9775C269.896 36.9775 267.26 36.6846 264.623 35.5127C264.037 35.293 263.598 35.0732 262.938 35.0732C261.767 35.0732 260.814 35.9521 260.814 37.124C260.814 38.0762 261.327 38.7354 262.133 39.248C265.136 40.8594 268.944 41.3721 272.46 41.3721C275.536 41.3721 279.931 40.2002 281.469 39.4678C286.449 42.1045 288.427 45.1807 288.427 51.5527C288.427 60.415 282.567 65.249 276.854 65.249C273.485 65.249 269.896 64.1504 265.722 62.7588C265.282 62.5391 264.696 62.3926 264.11 62.3926C263.012 62.3926 262.06 63.2715 262.06 64.4434C262.06 65.6152 262.938 66.3477 263.744 66.6406C267.626 68.1055 270.702 69.1309 276.488 69.6436V91.3965C276.488 102.969 268.944 111.099 257.592 111.099Z" fill="url(#gradient)"/>
<path d="M310.766 111.099C299.34 111.099 291.796 102.969 291.796 91.3965V31.9238C291.796 13.833 304.027 3.06641 319.188 3.06641C333.764 3.06641 341.601 11.3428 341.601 21.7432C341.601 30.3125 336.034 36.9775 325.414 36.9775C323.07 36.9775 320.434 36.6846 317.797 35.5127C317.211 35.293 316.771 35.0732 316.112 35.0732C314.94 35.0732 313.988 35.9521 313.988 37.124C313.988 38.0762 314.501 38.7354 315.307 39.248C318.31 40.8594 322.118 41.3721 325.634 41.3721C328.71 41.3721 333.104 40.2002 334.643 39.4678C339.623 42.1045 341.601 45.1807 341.601 51.5527C341.601 60.415 335.741 65.249 330.028 65.249C326.659 65.249 323.07 64.1504 318.896 62.7588C318.456 62.5391 317.87 62.3926 317.284 62.3926C316.186 62.3926 315.233 63.2715 315.233 64.4434C315.233 65.6152 316.112 66.3477 316.918 66.6406C320.8 68.1055 323.876 69.1309 329.662 69.6436V91.3965C329.662 102.969 322.118 111.099 310.766 111.099Z" fill="url(#gradient)"/>
<path d="M345.043 47.3047C345.043 43.3496 345.922 39.834 347.533 36.8311C351.635 40.4199 357.274 42.6172 364.013 42.6172C370.751 42.6172 376.391 40.4199 380.419 36.9043C382.03 39.834 382.909 43.3496 382.909 47.3047V91.4697C382.909 103.042 375.585 111.099 364.013 111.099C352.587 111.099 345.043 103.042 345.043 91.4697V47.3047ZM344.457 19.6191C344.457 9.29199 351.854 0.869141 364.013 0.869141C376.171 0.869141 383.495 9.29199 383.495 19.6191C383.495 30.0928 376.171 38.2227 364.013 38.2227C351.854 38.2227 344.457 30.0928 344.457 19.6191Z" fill="url(#gradient)"/>
<path d="M426.488 111.465C402.465 111.465 386.718 94.9121 386.718 69.7168C386.718 44.5215 402.465 27.9688 426.488 27.9688C448.314 27.9688 461.059 38.9551 461.059 50.6738C461.059 61.001 454.174 67.5195 443.627 67.5195C438.5 67.5195 431.396 67.5195 427.074 65.9082V59.0234C427.074 57.5586 426.415 56.5332 424.877 56.5332C423.339 56.5332 422.68 57.5586 422.68 59.0234V80.4102C422.68 81.8018 423.339 82.9004 424.877 82.9004C426.415 82.9004 427.074 81.8018 427.074 80.4102V73.4521C431.396 71.9141 438.5 71.9141 443.627 71.9141C454.174 71.9141 461.059 78.3594 461.059 88.7598C461.059 100.405 448.314 111.465 426.488 111.465Z" fill="url(#gradient)"/>
<path d="M464.867 47.3047C464.867 43.3496 465.746 39.834 467.357 36.8311C471.459 40.4199 477.099 42.6172 483.837 42.6172C490.575 42.6172 496.215 40.4199 500.243 36.9043C501.854 39.834 502.733 43.3496 502.733 47.3047V91.4697C502.733 103.042 495.409 111.099 483.837 111.099C472.411 111.099 464.867 103.042 464.867 91.4697V47.3047ZM464.281 19.6191C464.281 9.29199 471.679 0.869141 483.837 0.869141C495.995 0.869141 503.319 9.29199 503.319 19.6191C503.319 30.0928 495.995 38.2227 483.837 38.2227C471.679 38.2227 464.281 30.0928 464.281 19.6191Z" fill="url(#gradient)"/>
<path d="M548.876 111.465C521.85 111.465 506.542 94.3262 506.542 69.4238C506.542 44.9609 521.264 27.9688 545.727 27.9688C569.384 27.9688 584.398 41.3721 584.398 58.584C584.398 68.1787 581.103 73.5986 574.804 77.2607C569.53 77.9932 560.229 78.5059 555.541 78.5059C545.507 78.5059 542.064 76.9678 540.6 76.9678C539.354 76.9678 538.402 77.8467 538.402 79.0186C538.402 80.1172 539.135 80.9229 540.307 81.2891C542.943 82.0947 548.803 82.9004 555.541 82.9004C560.302 82.9004 568.432 82.0215 572.313 82.0215C578.173 82.0215 582.641 85.9033 582.641 93.0811C582.641 103.701 568.358 111.465 548.876 111.465ZM543.31 60.6348C543.31 62.0264 543.969 63.125 545.507 63.125C547.045 63.125 547.704 62.0264 547.704 60.6348V50.2344C547.704 48.7695 547.045 47.7441 545.507 47.7441C543.969 47.7441 543.31 48.7695 543.31 50.2344V60.6348Z" fill="url(#gradient)"/>
<path d="M606.884 111.099C595.604 111.099 588.134 102.969 588.134 91.3965V47.6709C588.134 36.0986 595.678 27.9688 607.104 27.9688C612.816 27.9688 617.211 29.6533 620.214 32.1436C616.039 36.3184 613.549 41.1523 612.67 43.3496C612.45 43.9355 612.304 44.4482 612.304 45.2539C612.304 46.2061 613.183 47.1582 614.208 47.1582C615.307 47.1582 616.112 46.499 616.625 45.4004C618.456 41.4453 620.653 37.7832 623.437 35.1465C628.197 30.5322 634.203 27.9688 641.015 27.9688C656.249 27.9688 666.503 38.8086 666.503 58.877V91.3965C666.503 102.969 659.032 111.099 647.826 111.099C636.84 111.099 629.516 102.969 629.516 91.3965V62.6123C629.516 61.1475 628.856 60.1221 627.318 60.1221C625.78 60.1221 625.121 61.1475 625.121 62.6123V91.3965C625.121 102.969 617.797 111.099 606.884 111.099Z" fill="url(#gradient)"/>
<path d="M698.29 111.465C683.129 111.465 670.897 100.698 670.897 82.6074V23.1348C670.897 11.5625 678.441 3.43262 689.867 3.43262C701.22 3.43262 708.397 11.2695 708.764 22.5488V24.9658C703.344 24.9658 698.876 25.918 695.214 28.042C694.262 28.6279 693.896 29.3604 693.896 30.166C693.896 31.2646 694.774 32.2168 695.946 32.2168C696.532 32.2168 697.118 31.9971 697.777 31.7041C700.561 30.3125 704.296 29.4336 708.764 29.4336C715.062 29.4336 720.702 35 720.702 43.3496C720.702 51.5527 715.941 57.1191 708.764 57.1191V72.6465C707.812 72.5 706.493 72.4268 705.468 72.4268C701.732 72.4268 697.704 73.3057 694.481 74.9902C693.529 75.5029 693.09 76.1621 693.09 77.041C693.09 78.2129 693.969 79.2383 695.214 79.2383C695.873 79.2383 696.459 78.8721 697.338 78.5059C699.242 77.5537 702.245 76.8213 704.809 76.8213C713.158 76.8213 719.018 83.7061 719.018 92.7881C719.018 103.188 711.767 111.465 698.29 111.465Z" fill="url(#gradient)"/>
<path d="M65.3311 241.465C61.5957 241.465 58.0068 240.073 55.4434 238.096C59.9111 234.287 64.0859 227.402 64.0859 224.473C64.0859 223.228 63.2803 222.275 62.0352 222.275C60.9365 222.275 60.3506 222.935 59.8379 224.253C55.5166 235.166 46.1416 241.465 33.5439 241.465C14.9404 241.465 0.584961 226.45 0.584961 199.644C0.584961 172.983 14.7207 157.969 35.2285 157.969C46.0684 157.969 55.6631 165.439 59.6914 175.4C60.1309 176.426 60.8633 176.938 61.8887 176.938C62.9873 176.938 63.8662 175.986 63.8662 174.741C63.8662 174.009 63.5 173.13 63.207 172.471C62.1816 170.054 57.6406 160.532 46.4346 155.845V150.791C46.4346 140.464 53.9785 133.433 65.3311 133.433C76.4639 133.433 84.3008 140.757 84.3008 151.597V223.813C84.3008 234.141 76.7568 241.465 65.3311 241.465ZM36.0342 210.483C36.0342 211.875 36.6934 212.974 38.2314 212.974C39.7695 212.974 40.4287 211.875 40.4287 210.483V188.364C40.4287 186.899 39.7695 185.874 38.2314 185.874C36.6934 185.874 36.0342 186.899 36.0342 188.364V210.483Z" fill="url(#gradient)"/>
<path d="M130.37 241.465C103.344 241.465 88.0361 224.326 88.0361 199.424C88.0361 174.961 102.758 157.969 127.221 157.969C150.878 157.969 165.893 171.372 165.893 188.584C165.893 198.179 162.597 203.599 156.298 207.261C151.024 207.993 141.723 208.506 137.035 208.506C127.001 208.506 123.559 206.968 122.094 206.968C120.849 206.968 119.896 207.847 119.896 209.019C119.896 210.117 120.629 210.923 121.801 211.289C124.438 212.095 130.297 212.9 137.035 212.9C141.796 212.9 149.926 212.021 153.808 212.021C159.667 212.021 164.135 215.903 164.135 223.081C164.135 233.701 149.853 241.465 130.37 241.465ZM124.804 190.635C124.804 192.026 125.463 193.125 127.001 193.125C128.539 193.125 129.198 192.026 129.198 190.635V180.234C129.198 178.77 128.539 177.744 127.001 177.744C125.463 177.744 124.804 178.77 124.804 180.234V190.635Z" fill="url(#gradient)"/>
<path d="M207.641 241.465C190.722 241.465 179.662 229.16 176.366 216.562L170.214 193.052C168.969 188.291 167.797 183.018 167.797 177.305C167.797 164.634 174.022 158.335 185.741 158.335C197.46 158.335 202.733 164.194 205.15 175.693L209.545 196.641C210.497 201.255 212.108 206.455 213.28 208.872C213.866 210.044 214.599 210.557 215.478 210.557C216.723 210.557 217.602 209.678 217.602 208.433C217.602 207.627 217.162 206.675 216.796 205.942C215.697 203.599 214.599 199.424 213.427 193.784L210.277 178.257C211.596 167.637 215.844 158.335 229.467 158.335C241.259 158.335 247.631 164.634 247.631 177.451C247.631 182.798 246.605 187.852 245.214 193.052L238.915 216.636C235.619 229.014 224.56 241.465 207.641 241.465Z" fill="url(#gradient)"/>
<path d="M290.331 241.465C263.305 241.465 247.997 224.326 247.997 199.424C247.997 174.961 262.719 157.969 287.182 157.969C310.839 157.969 325.854 171.372 325.854 188.584C325.854 198.179 322.558 203.599 316.259 207.261C310.985 207.993 301.684 208.506 296.996 208.506C286.962 208.506 283.52 206.968 282.055 206.968C280.81 206.968 279.857 207.847 279.857 209.019C279.857 210.117 280.59 210.923 281.762 211.289C284.398 212.095 290.258 212.9 296.996 212.9C301.757 212.9 309.887 212.021 313.769 212.021C319.628 212.021 324.096 215.903 324.096 223.081C324.096 233.701 309.813 241.465 290.331 241.465ZM284.765 190.635C284.765 192.026 285.424 193.125 286.962 193.125C288.5 193.125 289.159 192.026 289.159 190.635V180.234C289.159 178.77 288.5 177.744 286.962 177.744C285.424 177.744 284.765 178.77 284.765 180.234V190.635Z" fill="url(#gradient)"/>
<path d="M348.852 241.099C337.426 241.099 329.882 233.042 329.882 221.47V153.062C329.882 141.489 337.426 133.433 348.852 133.433C360.204 133.433 367.748 141.489 367.748 153.062V221.47C367.748 233.042 360.424 241.099 348.852 241.099Z" fill="url(#gradient)"/>
<path d="M410.302 241.465C386.938 241.465 371.483 225.864 371.483 199.717C371.483 173.569 386.938 157.969 410.302 157.969C433.666 157.969 449.12 173.569 449.12 199.717C449.12 225.864 433.666 241.465 410.302 241.465ZM408.104 211.143C408.104 212.534 408.764 213.633 410.302 213.633C411.84 213.633 412.499 212.534 412.499 211.143V188.291C412.499 186.826 411.84 185.801 410.302 185.801C408.764 185.801 408.104 186.826 408.104 188.291V211.143Z" fill="url(#gradient)"/>
<path d="M471.752 259.043C460.619 259.043 452.782 251.719 452.782 240.879V175.62C452.782 165.293 460.326 157.969 471.752 157.969C475.487 157.969 479.076 159.36 481.64 161.265C477.172 165.146 472.997 172.031 472.997 174.961C472.997 176.206 473.803 177.158 475.048 177.158C476.146 177.158 476.732 176.499 477.245 175.181C481.566 164.268 490.941 157.969 502.66 157.969C522.582 157.969 536.498 172.983 536.498 199.717C536.498 226.45 522.582 241.465 502.66 241.465C491.015 241.465 481.42 233.921 477.392 223.96C476.952 223.008 476.22 222.495 475.194 222.495C474.096 222.495 473.217 223.447 473.217 224.692C473.217 225.352 473.583 226.304 473.876 226.963C474.901 229.307 479.369 238.755 490.429 243.442V243.662C489.77 252.305 482.958 259.043 471.752 259.043ZM496.654 210.483C496.654 211.875 497.313 212.974 498.852 212.974C500.39 212.974 501.049 211.875 501.049 210.483V188.364C501.049 186.899 500.39 185.874 498.852 185.874C497.313 185.874 496.654 186.899 496.654 188.364V210.483Z" fill="url(#gradient)"/>
<path d="M558.471 241.099C547.484 241.099 540.233 232.969 540.233 221.396V177.671C540.233 166.099 547.777 157.969 559.203 157.969C564.916 157.969 569.237 159.653 572.313 162.144C568.139 166.318 565.648 171.152 564.77 173.35C564.55 173.936 564.403 174.448 564.403 175.254C564.403 176.206 565.282 177.158 566.308 177.158C567.406 177.158 568.212 176.499 568.725 175.4C570.482 171.519 572.753 167.93 575.39 165.366C580.443 160.459 586.962 157.969 594.359 157.969C602.27 157.969 608.349 159.58 612.523 162.29C608.495 166.392 606.078 171.152 605.199 173.35C604.979 173.936 604.833 174.448 604.833 175.254C604.833 176.206 605.712 177.158 606.737 177.158C607.836 177.158 608.642 176.499 609.154 175.4C611.059 171.299 613.329 167.563 616.039 164.854C620.653 160.386 626.366 157.969 632.812 157.969C649.364 157.969 659.032 168.809 659.032 188.877V221.396C659.032 232.969 651.854 241.099 640.795 241.099C629.735 241.099 622.411 232.969 622.411 221.396V192.612C622.411 191.147 621.752 190.122 620.214 190.122C618.676 190.122 618.017 191.147 618.017 192.612V221.396C618.017 232.969 610.692 241.099 599.56 241.099C588.5 241.099 581.249 232.969 581.249 221.396V192.612C581.249 191.147 580.59 190.122 579.052 190.122C577.514 190.122 576.854 191.147 576.854 192.612V221.396C576.854 232.969 569.53 241.099 558.471 241.099Z" fill="url(#gradient)"/>
<path d="M705.028 241.465C678.002 241.465 662.694 224.326 662.694 199.424C662.694 174.961 677.416 157.969 701.879 157.969C725.536 157.969 740.551 171.372 740.551 188.584C740.551 198.179 737.255 203.599 730.956 207.261C725.683 207.993 716.381 208.506 711.693 208.506C701.659 208.506 698.217 206.968 696.752 206.968C695.507 206.968 694.555 207.847 694.555 209.019C694.555 210.117 695.287 210.923 696.459 211.289C699.096 212.095 704.955 212.9 711.693 212.9C716.454 212.9 724.584 212.021 728.466 212.021C734.325 212.021 738.793 215.903 738.793 223.081C738.793 233.701 724.511 241.465 705.028 241.465ZM699.462 190.635C699.462 192.026 700.121 193.125 701.659 193.125C703.197 193.125 703.856 192.026 703.856 190.635V180.234C703.856 178.77 703.197 177.744 701.659 177.744C700.121 177.744 699.462 178.77 699.462 180.234V190.635Z" fill="url(#gradient)"/>
<path d="M763.036 241.099C751.757 241.099 744.286 232.969 744.286 221.396V177.671C744.286 166.099 751.83 157.969 763.256 157.969C768.969 157.969 773.363 159.653 776.366 162.144C772.191 166.318 769.701 171.152 768.822 173.35C768.603 173.936 768.456 174.448 768.456 175.254C768.456 176.206 769.335 177.158 770.36 177.158C771.459 177.158 772.265 176.499 772.777 175.4C774.608 171.445 776.806 167.783 779.589 165.146C784.35 160.532 790.355 157.969 797.167 157.969C812.401 157.969 822.655 168.809 822.655 188.877V221.396C822.655 232.969 815.185 241.099 803.979 241.099C792.992 241.099 785.668 232.969 785.668 221.396V192.612C785.668 191.147 785.009 190.122 783.471 190.122C781.933 190.122 781.273 191.147 781.273 192.612V221.396C781.273 232.969 773.949 241.099 763.036 241.099Z" fill="url(#gradient)"/>
<path d="M854.442 241.465C839.281 241.465 827.05 230.698 827.05 212.607V153.135C827.05 141.562 834.594 133.433 846.02 133.433C857.372 133.433 864.55 141.27 864.916 152.549V154.966C859.496 154.966 855.028 155.918 851.366 158.042C850.414 158.628 850.048 159.36 850.048 160.166C850.048 161.265 850.927 162.217 852.099 162.217C852.685 162.217 853.271 161.997 853.93 161.704C856.713 160.312 860.448 159.434 864.916 159.434C871.215 159.434 876.854 165 876.854 173.35C876.854 181.553 872.094 187.119 864.916 187.119V202.646C863.964 202.5 862.646 202.427 861.62 202.427C857.885 202.427 853.856 203.306 850.634 204.99C849.682 205.503 849.242 206.162 849.242 207.041C849.242 208.213 850.121 209.238 851.366 209.238C852.025 209.238 852.611 208.872 853.49 208.506C855.395 207.554 858.397 206.821 860.961 206.821C869.311 206.821 875.17 213.706 875.17 222.788C875.17 233.188 867.919 241.465 854.442 241.465Z" fill="url(#gradient)"/>
<path d="M56.542 371.465C29.5156 371.465 14.208 354.326 14.208 329.424C14.208 304.961 28.9297 287.969 53.3926 287.969C77.0498 287.969 92.0645 301.372 92.0645 318.584C92.0645 328.179 88.7686 333.599 82.4697 337.261C77.1963 337.993 67.8945 338.506 63.207 338.506C53.1729 338.506 49.7305 336.968 48.2656 336.968C47.0205 336.968 46.0684 337.847 46.0684 339.019C46.0684 340.117 46.8008 340.923 47.9727 341.289C50.6094 342.095 56.4688 342.9 63.207 342.9C67.9678 342.9 76.0977 342.021 79.9795 342.021C85.8389 342.021 90.3066 345.903 90.3066 353.081C90.3066 363.701 76.0244 371.465 56.542 371.465ZM50.9756 320.635C50.9756 322.026 51.6348 323.125 53.1729 323.125C54.7109 323.125 55.3701 322.026 55.3701 320.635V310.234C55.3701 308.77 54.7109 307.744 53.1729 307.744C51.6348 307.744 50.9756 308.77 50.9756 310.234V320.635Z" fill="url(#gradient)"/>
<path d="M114.55 371.099C103.271 371.099 95.7998 362.969 95.7998 351.396V307.671C95.7998 296.099 103.344 287.969 114.77 287.969C120.482 287.969 124.877 289.653 127.88 292.144C123.705 296.318 121.215 301.152 120.336 303.35C120.116 303.936 119.97 304.448 119.97 305.254C119.97 306.206 120.849 307.158 121.874 307.158C122.973 307.158 123.778 306.499 124.291 305.4C126.122 301.445 128.319 297.783 131.103 295.146C135.863 290.532 141.869 287.969 148.681 287.969C163.915 287.969 174.169 298.809 174.169 318.877V351.396C174.169 362.969 166.698 371.099 155.492 371.099C144.506 371.099 137.182 362.969 137.182 351.396V322.612C137.182 321.147 136.522 320.122 134.984 320.122C133.446 320.122 132.787 321.147 132.787 322.612V351.396C132.787 362.969 125.463 371.099 114.55 371.099Z" fill="url(#gradient)"/>
<path d="M215.844 371.465C198.925 371.465 187.865 359.16 184.569 346.562L178.417 323.052C177.172 318.291 176 313.018 176 307.305C176 294.634 182.226 288.335 193.944 288.335C205.663 288.335 210.937 294.194 213.354 305.693L217.748 326.641C218.7 331.255 220.312 336.455 221.483 338.872C222.069 340.044 222.802 340.557 223.681 340.557C224.926 340.557 225.805 339.678 225.805 338.433C225.805 337.627 225.365 336.675 224.999 335.942C223.9 333.599 222.802 329.424 221.63 323.784L218.48 308.257C219.799 297.637 224.047 288.335 237.67 288.335C249.462 288.335 255.834 294.634 255.834 307.451C255.834 312.798 254.809 317.852 253.417 323.052L247.118 346.636C243.822 359.014 232.763 371.465 215.844 371.465Z" fill="url(#gradient)"/>
<path d="M258.91 307.305C258.91 303.35 259.789 299.834 261.4 296.831C265.502 300.42 271.142 302.617 277.88 302.617C284.618 302.617 290.258 300.42 294.286 296.904C295.897 299.834 296.776 303.35 296.776 307.305V351.47C296.776 363.042 289.452 371.099 277.88 371.099C266.454 371.099 258.91 363.042 258.91 351.47V307.305ZM258.324 279.619C258.324 269.292 265.722 260.869 277.88 260.869C290.038 260.869 297.362 269.292 297.362 279.619C297.362 290.093 290.038 298.223 277.88 298.223C265.722 298.223 258.324 290.093 258.324 279.619Z" fill="url(#gradient)"/>
<path d="M320.287 371.099C309.008 371.099 301.317 363.115 301.317 351.396V307.744C301.317 295.952 308.788 287.969 320.727 287.969C324.535 287.969 327.538 288.701 329.589 289.873C326.952 293.242 325.341 296.465 324.315 299.248C324.169 299.761 323.803 300.713 323.803 301.372C323.803 302.471 324.682 303.423 325.854 303.423C327.099 303.423 327.831 302.544 328.124 301.665C329.296 298.516 331.42 294.121 334.057 291.411C336.107 289.287 339.623 287.969 343.871 287.969C354.784 287.969 362.108 296.611 362.108 309.575C362.108 322.466 354.857 331.182 343.798 331.182C337.133 331.182 331.933 325.688 329.735 321.587C329.223 320.781 328.563 320.269 327.611 320.269C326.439 320.269 325.561 321.221 325.561 322.466C325.561 323.052 325.78 323.638 326.22 324.443C328.417 328.252 333.983 333.672 339.184 334.917V351.396C339.184 363.115 331.493 371.099 320.287 371.099Z" fill="url(#gradient)"/>
<path d="M401.366 371.465C378.002 371.465 362.548 355.864 362.548 329.717C362.548 303.569 378.002 287.969 401.366 287.969C424.73 287.969 440.185 303.569 440.185 329.717C440.185 355.864 424.73 371.465 401.366 371.465ZM399.169 341.143C399.169 342.534 399.828 343.633 401.366 343.633C402.904 343.633 403.563 342.534 403.563 341.143V318.291C403.563 316.826 402.904 315.801 401.366 315.801C399.828 315.801 399.169 316.826 399.169 318.291V341.143Z" fill="url(#gradient)"/>
<path d="M462.597 371.099C451.317 371.099 443.847 362.969 443.847 351.396V307.671C443.847 296.099 451.391 287.969 462.816 287.969C468.529 287.969 472.924 289.653 475.927 292.144C471.752 296.318 469.262 301.152 468.383 303.35C468.163 303.936 468.017 304.448 468.017 305.254C468.017 306.206 468.896 307.158 469.921 307.158C471.02 307.158 471.825 306.499 472.338 305.4C474.169 301.445 476.366 297.783 479.149 295.146C483.91 290.532 489.916 287.969 496.728 287.969C511.962 287.969 522.216 298.809 522.216 318.877V351.396C522.216 362.969 514.745 371.099 503.539 371.099C492.553 371.099 485.229 362.969 485.229 351.396V322.612C485.229 321.147 484.569 320.122 483.031 320.122C481.493 320.122 480.834 321.147 480.834 322.612V351.396C480.834 362.969 473.51 371.099 462.597 371.099Z" fill="url(#gradient)"/>
<path d="M544.848 371.099C533.861 371.099 526.61 362.969 526.61 351.396V307.671C526.61 296.099 534.154 287.969 545.58 287.969C551.293 287.969 555.614 289.653 558.69 292.144C554.516 296.318 552.025 301.152 551.146 303.35C550.927 303.936 550.78 304.448 550.78 305.254C550.78 306.206 551.659 307.158 552.685 307.158C553.783 307.158 554.589 306.499 555.102 305.4C556.859 301.519 559.13 297.93 561.767 295.366C566.82 290.459 573.339 287.969 580.736 287.969C588.646 287.969 594.726 289.58 598.9 292.29C594.872 296.392 592.455 301.152 591.576 303.35C591.356 303.936 591.21 304.448 591.21 305.254C591.21 306.206 592.089 307.158 593.114 307.158C594.213 307.158 595.019 306.499 595.531 305.4C597.436 301.299 599.706 297.563 602.416 294.854C607.03 290.386 612.743 287.969 619.188 287.969C635.741 287.969 645.409 298.809 645.409 318.877V351.396C645.409 362.969 638.231 371.099 627.172 371.099C616.112 371.099 608.788 362.969 608.788 351.396V322.612C608.788 321.147 608.129 320.122 606.591 320.122C605.053 320.122 604.394 321.147 604.394 322.612V351.396C604.394 362.969 597.069 371.099 585.937 371.099C574.877 371.099 567.626 362.969 567.626 351.396V322.612C567.626 321.147 566.967 320.122 565.429 320.122C563.891 320.122 563.231 321.147 563.231 322.612V351.396C563.231 362.969 555.907 371.099 544.848 371.099Z" fill="url(#gradient)"/>
<path d="M691.405 371.465C664.379 371.465 649.071 354.326 649.071 329.424C649.071 304.961 663.793 287.969 688.256 287.969C711.913 287.969 726.928 301.372 726.928 318.584C726.928 328.179 723.632 333.599 717.333 337.261C712.06 337.993 702.758 338.506 698.07 338.506C688.036 338.506 684.594 336.968 683.129 336.968C681.884 336.968 680.932 337.847 680.932 339.019C680.932 340.117 681.664 340.923 682.836 341.289C685.473 342.095 691.332 342.9 698.07 342.9C702.831 342.9 710.961 342.021 714.843 342.021C720.702 342.021 725.17 345.903 725.17 353.081C725.17 363.701 710.888 371.465 691.405 371.465ZM685.839 320.635C685.839 322.026 686.498 323.125 688.036 323.125C689.574 323.125 690.233 322.026 690.233 320.635V310.234C690.233 308.77 689.574 307.744 688.036 307.744C686.498 307.744 685.839 308.77 685.839 310.234V320.635Z" fill="url(#gradient)"/>
<path d="M749.413 371.099C738.134 371.099 730.663 362.969 730.663 351.396V307.671C730.663 296.099 738.207 287.969 749.633 287.969C755.346 287.969 759.74 289.653 762.743 292.144C758.568 296.318 756.078 301.152 755.199 303.35C754.979 303.936 754.833 304.448 754.833 305.254C754.833 306.206 755.712 307.158 756.737 307.158C757.836 307.158 758.642 306.499 759.154 305.4C760.985 301.445 763.183 297.783 765.966 295.146C770.727 290.532 776.732 287.969 783.544 287.969C798.778 287.969 809.032 298.809 809.032 318.877V351.396C809.032 362.969 801.562 371.099 790.355 371.099C779.369 371.099 772.045 362.969 772.045 351.396V322.612C772.045 321.147 771.386 320.122 769.848 320.122C768.31 320.122 767.65 321.147 767.65 322.612V351.396C767.65 362.969 760.326 371.099 749.413 371.099Z" fill="url(#gradient)"/>
<path d="M840.819 371.465C825.658 371.465 813.427 360.698 813.427 342.607V283.135C813.427 271.562 820.971 263.433 832.396 263.433C843.749 263.433 850.927 271.27 851.293 282.549V284.966C845.873 284.966 841.405 285.918 837.743 288.042C836.791 288.628 836.425 289.36 836.425 290.166C836.425 291.265 837.304 292.217 838.476 292.217C839.062 292.217 839.647 291.997 840.307 291.704C843.09 290.312 846.825 289.434 851.293 289.434C857.592 289.434 863.231 295 863.231 303.35C863.231 311.553 858.471 317.119 851.293 317.119V332.646C850.341 332.5 849.022 332.427 847.997 332.427C844.262 332.427 840.233 333.306 837.011 334.99C836.059 335.503 835.619 336.162 835.619 337.041C835.619 338.213 836.498 339.238 837.743 339.238C838.402 339.238 838.988 338.872 839.867 338.506C841.771 337.554 844.774 336.821 847.338 336.821C855.688 336.821 861.547 343.706 861.547 352.788C861.547 363.188 854.296 371.465 840.819 371.465Z" fill="url(#gradient)"/>
<defs>
<linearGradient id="gradient" x1="-4.99999" y1="385" x2="282.394" y2="-268.637" gradientUnits="userSpaceOnUse">
<stop stop-color="#F2DF0D"/>
<stop offset="0.29" stop-color="#B9F20D"/>
<stop offset="0.43" stop-color="#70F20D"/>
<stop offset="0.52" stop-color="#18F20D"/>
<stop offset="0.61" stop-color="#0DF269"/>
<stop offset="1" stop-color="#0DF2CC"/>
</linearGradient>
</defs>
</svg>
