<svg width="32" height="32" viewBox="0 0 32 32" fill="none" xmlns="http://www.w3.org/2000/svg">
<path d="M16 29.3334C15.2667 29.3334 14.6387 29.072 14.116 28.5494C13.5933 28.0267 13.3324 27.3991 13.3333 26.6667H18.6667C18.6667 27.4 18.4053 28.028 17.8827 28.5507C17.36 29.0734 16.7324 29.3342 16 29.3334ZM12 25.3334C11.6222 25.3334 11.3053 25.2054 11.0493 24.9494C10.7933 24.6934 10.6658 24.3769 10.6667 24C10.6667 23.6222 10.7947 23.3054 11.0507 23.0494C11.3067 22.7934 11.6231 22.6658 12 22.6667H20C20.3778 22.6667 20.6947 22.7947 20.9507 23.0507C21.2067 23.3067 21.3342 23.6231 21.3333 24C21.3333 24.3778 21.2053 24.6947 20.9493 24.9507C20.6933 25.2067 20.3769 25.3342 20 25.3334H12ZM11 21.3334C9.46667 20.4222 8.24978 19.2 7.34933 17.6667C6.44889 16.1334 5.99911 14.4667 6 12.6667C6 9.88891 6.97245 7.52758 8.91733 5.58269C10.8622 3.6378 13.2231 2.6658 16 2.66669C18.7778 2.66669 21.1391 3.63913 23.084 5.58402C25.0289 7.52891 26.0009 9.8898 26 12.6667C26 14.4667 25.5502 16.1334 24.6507 17.6667C23.7511 19.2 22.5342 20.4222 21 21.3334H11Z" fill="url(#paint0_linear_2314_2)"/>
<defs>
<linearGradient id="paint0_linear_2314_2" x1="23" y1="1" x2="9.464" y2="16.552" gradientUnits="userSpaceOnUse">
<stop stop-color="#38FFF2"/>
<stop offset="0.25" stop-color="#00E1FF"/>
<stop offset="0.5" stop-color="#00BBFF"/>
<stop offset="0.75" stop-color="#008CFF"/>
<stop offset="1" stop-color="#7079FD"/>
</linearGradient>
</defs>
</svg>
