<svg width="28" height="32" viewBox="0 0 28 32" fill="none" xmlns="http://www.w3.org/2000/svg">
<g clip-path="url(#clip0_201_2)">
<path d="M14 0C18.4187 0 22 3.58125 22 8C22 12.4187 18.4187 16 14 16C9.58125 16 6 12.4187 6 8C6 3.58125 9.58125 0 14 0ZM13.0688 22.45L11.9062 20.5125C11.5062 19.8438 11.9875 19 12.7625 19H15.2312C16.0062 19 16.4875 19.85 16.0875 20.5125L14.925 22.45L17.0125 30.1938L19.4813 20.1187C24.3063 20.8687 28 25.0437 28 30.0812C28 31.1437 27.1375 32 26.0812 32H1.91875C0.8625 32 0 31.1375 0 30.0812C0 25.0437 3.69375 20.8687 8.51875 20.1187L10.9875 30.1938L13.075 22.45H13.0688Z" fill="url(#paint0_linear_201_2)"/>
</g>
<defs>
<linearGradient id="paint0_linear_201_2" x1="8" y1="2.5" x2="22.5" y2="28" gradientUnits="userSpaceOnUse">
<stop stop-color="#FF04F5"/>
<stop offset="1" stop-color="#6438E7"/>
</linearGradient>
</defs>
</svg>
