<svg width="32" height="29" viewBox="0 0 32 29" fill="none" xmlns="http://www.w3.org/2000/svg">
<path d="M31.9999 24.5C31.9999 25.4282 31.6312 26.3185 30.9748 26.9749C30.3184 27.6312 29.4282 28 28.4999 28C27.5717 28 26.6814 27.6312 26.0251 26.9749C25.3687 26.3185 24.9999 25.4282 24.9999 24.5C24.9999 21.5537 27.7574 19.3137 27.8749 19.2187C28.0523 19.0767 28.2727 18.9994 28.4999 18.9994C28.7272 18.9994 28.9476 19.0767 29.1249 19.2187C29.2424 19.3137 31.9999 21.5537 31.9999 24.5ZM16.5612 14.5612C16.7705 14.3512 16.9128 14.084 16.9703 13.7931C17.0277 13.5023 16.9977 13.201 16.884 12.9272C16.7703 12.6534 16.5781 12.4194 16.3315 12.2548C16.085 12.0903 15.7951 12.0024 15.4987 12.0024C15.2022 12.0024 14.9124 12.0903 14.6659 12.2548C14.4193 12.4194 14.2271 12.6534 14.1134 12.9272C13.9997 13.201 13.9697 13.5023 14.0271 13.7931C14.0846 14.084 14.2269 14.3512 14.4362 14.5612C14.5756 14.7011 14.7411 14.812 14.9235 14.8877C15.1058 14.9634 15.3013 15.0024 15.4987 15.0024C15.6961 15.0024 15.8916 14.9634 16.0739 14.8877C16.2563 14.812 16.4218 14.7011 16.5612 14.5612ZM28.7074 13.7287L15.2712 0.292478C15.0837 0.105084 14.8294 -0.000183105 14.5643 -0.000183105C14.2992 -0.000183105 14.045 0.105084 13.8574 0.292478L8.7812 5.37498L13.8349 10.4275C14.5743 10.0273 15.433 9.9067 16.254 10.0876C17.075 10.2685 17.8035 10.7389 18.3062 11.4128C18.8089 12.0866 19.0522 12.9189 18.9917 13.7574C18.9313 14.5959 18.571 15.3847 17.9768 15.9794C17.3826 16.5741 16.5942 16.9351 15.7557 16.9963C14.9172 17.0575 14.0847 16.8149 13.4104 16.3128C12.7362 15.8107 12.2651 15.0827 12.0835 14.2618C11.9018 13.441 12.0217 12.5822 12.4212 11.8425L7.36745 6.78248L1.87495 12.2712C1.31238 12.8338 0.996338 13.5969 0.996338 14.3925C0.996338 15.1881 1.31238 15.9511 1.87495 16.5137L12.4862 27.125C13.0488 27.6875 13.8118 28.0036 14.6074 28.0036C15.4031 28.0036 16.1661 27.6875 16.7287 27.125L28.7074 15.1462C28.8008 15.0533 28.8749 14.9429 28.9254 14.8212C28.976 14.6996 29.002 14.5692 29.002 14.4375C29.002 14.3058 28.976 14.1753 28.9254 14.0537C28.8749 13.9321 28.8008 13.8216 28.7074 13.7287ZM5.70745 2.29248C5.51981 2.10484 5.26531 1.99942 4.99995 1.99942C4.73458 1.99942 4.48009 2.10484 4.29245 2.29248C4.10481 2.48012 3.99939 2.73461 3.99939 2.99998C3.99939 3.26534 4.10481 3.51984 4.29245 3.70748L7.36745 6.78248L8.7812 5.37498L5.70745 2.29248Z" fill="url(#paint0_linear_2306_8)"/>
<defs>
<linearGradient id="paint0_linear_2306_8" x1="0.996338" y1="28.0036" x2="28.8557" y2="-2.84017" gradientUnits="userSpaceOnUse">
<stop stop-color="#38FFF2"/>
<stop offset="0.25" stop-color="#00E1FF"/>
<stop offset="0.5" stop-color="#00BBFF"/>
<stop offset="0.75" stop-color="#008CFF"/>
<stop offset="1" stop-color="#7079FD"/>
</linearGradient>
</defs>
</svg>
