<svg viewBox="0 0 823 390" fill="none" xmlns="http://www.w3.org/2000/svg">
<path d="M184.815 111.465C160.792 111.465 145.045 94.9121 145.045 69.7168C145.045 44.5215 160.792 27.9688 184.815 27.9688C206.642 27.9688 219.386 38.9551 219.386 50.6738C219.386 61.001 212.501 67.5195 201.954 67.5195C196.827 67.5195 189.723 67.5195 185.401 65.9082V59.0234C185.401 57.5586 184.742 56.5332 183.204 56.5332C181.666 56.5332 181.007 57.5586 181.007 59.0234V80.4102C181.007 81.8018 181.666 82.9004 183.204 82.9004C184.742 82.9004 185.401 81.8018 185.401 80.4102V73.4521C189.723 71.9141 196.827 71.9141 201.954 71.9141C212.501 71.9141 219.386 78.3594 219.386 88.7598C219.386 100.405 206.642 111.465 184.815 111.465Z" fill="url(#gradient)"/>
<path d="M242.384 111.099C231.104 111.099 223.414 103.115 223.414 91.3965V47.7441C223.414 35.9521 230.885 27.9688 242.823 27.9688C246.632 27.9688 249.635 28.7012 251.686 29.873C249.049 33.2422 247.438 36.4648 246.412 39.248C246.266 39.7607 245.899 40.7129 245.899 41.3721C245.899 42.4707 246.778 43.4229 247.95 43.4229C249.195 43.4229 249.928 42.5439 250.221 41.665C251.393 38.5156 253.517 34.1211 256.153 31.4111C258.204 29.2871 261.72 27.9688 265.968 27.9688C276.881 27.9688 284.205 36.6113 284.205 49.5752C284.205 62.4658 276.954 71.1816 265.895 71.1816C259.229 71.1816 254.029 65.6885 251.832 61.5869C251.319 60.7812 250.66 60.2686 249.708 60.2686C248.536 60.2686 247.657 61.2207 247.657 62.4658C247.657 63.0518 247.877 63.6377 248.316 64.4434C250.514 68.252 256.08 73.6719 261.28 74.917V91.3965C261.28 103.115 253.59 111.099 242.384 111.099Z" fill="url(#gradient)"/>
<path d="M313.429 111.465C298.854 111.465 287.794 100.479 287.794 84.4385C287.794 78.3594 289.405 74.2578 292.481 70.2295C295.338 71.7676 299.073 72.5 302.369 72.5C313.282 72.5 321.559 63.4912 321.559 54.3359C321.559 52.2119 320.753 51.333 319.435 51.333C318.116 51.333 317.384 52.0654 317.237 53.9697C316.798 62.3193 310.133 68.1055 302.296 68.1055C294.02 68.1055 286.549 62.832 286.549 53.5303C286.549 39.1016 303.907 27.9688 326.319 27.9688C348.878 27.9688 363.453 41.8115 363.453 63.125V93.3008C363.453 103.921 355.909 111.465 344.483 111.465C340.235 111.465 335.182 109.707 333.131 107.29C336.28 103.921 339.649 98.2812 341.114 94.3994C341.407 93.5205 341.554 93.0078 341.554 92.5684C341.554 91.25 340.528 90.4443 339.503 90.4443C338.697 90.4443 337.892 90.7373 337.232 92.2754C332.984 102.969 325.514 111.465 313.429 111.465ZM324.781 82.3145C324.781 83.7061 325.44 84.8047 326.979 84.8047C328.517 84.8047 329.176 83.7061 329.176 82.3145V73.3789C329.176 71.9141 328.517 70.8887 326.979 70.8887C325.44 70.8887 324.781 71.9141 324.781 73.3789V82.3145Z" fill="url(#gradient)"/>
<path d="M386.817 111.099C375.392 111.099 367.848 102.969 367.848 91.3965V31.9238C367.848 13.833 380.079 3.06641 395.24 3.06641C409.815 3.06641 417.652 11.3428 417.652 21.7432C417.652 30.3125 412.086 36.9775 401.466 36.9775C399.122 36.9775 396.485 36.6846 393.849 35.5127C393.263 35.293 392.823 35.0732 392.164 35.0732C390.992 35.0732 390.04 35.9521 390.04 37.124C390.04 38.0762 390.553 38.7354 391.358 39.248C394.361 40.8594 398.17 41.3721 401.686 41.3721C404.762 41.3721 409.156 40.2002 410.694 39.4678C415.675 42.1045 417.652 45.1807 417.652 51.5527C417.652 60.415 411.793 65.249 406.08 65.249C402.711 65.249 399.122 64.1504 394.947 62.7588C394.508 62.5391 393.922 62.3926 393.336 62.3926C392.237 62.3926 391.285 63.2715 391.285 64.4434C391.285 65.6152 392.164 66.3477 392.97 66.6406C396.852 68.1055 399.928 69.1309 405.714 69.6436V91.3965C405.714 102.969 398.17 111.099 386.817 111.099Z" fill="url(#gradient)"/>
<path d="M448.414 111.465C433.253 111.465 421.021 100.698 421.021 82.6074V23.1348C421.021 11.5625 428.565 3.43262 439.991 3.43262C451.344 3.43262 458.521 11.2695 458.888 22.5488V24.9658C453.468 24.9658 449 25.918 445.338 28.042C444.386 28.6279 444.02 29.3604 444.02 30.166C444.02 31.2646 444.898 32.2168 446.07 32.2168C446.656 32.2168 447.242 31.9971 447.901 31.7041C450.685 30.3125 454.42 29.4336 458.888 29.4336C465.187 29.4336 470.826 35 470.826 43.3496C470.826 51.5527 466.065 57.1191 458.888 57.1191V72.6465C457.936 72.5 456.617 72.4268 455.592 72.4268C451.856 72.4268 447.828 73.3057 444.605 74.9902C443.653 75.5029 443.214 76.1621 443.214 77.041C443.214 78.2129 444.093 79.2383 445.338 79.2383C445.997 79.2383 446.583 78.8721 447.462 78.5059C449.366 77.5537 452.369 76.8213 454.933 76.8213C463.282 76.8213 469.142 83.7061 469.142 92.7881C469.142 103.188 461.891 111.465 448.414 111.465Z" fill="url(#gradient)"/>
<path d="M473.829 47.3047C473.829 43.3496 474.708 39.834 476.319 36.8311C480.421 40.4199 486.061 42.6172 492.799 42.6172C499.537 42.6172 505.177 40.4199 509.205 36.9043C510.816 39.834 511.695 43.3496 511.695 47.3047V91.4697C511.695 103.042 504.371 111.099 492.799 111.099C481.373 111.099 473.829 103.042 473.829 91.4697V47.3047ZM473.243 19.6191C473.243 9.29199 480.641 0.869141 492.799 0.869141C504.957 0.869141 512.281 9.29199 512.281 19.6191C512.281 30.0928 504.957 38.2227 492.799 38.2227C480.641 38.2227 473.243 30.0928 473.243 19.6191Z" fill="url(#gradient)"/>
<path d="M534.986 111.099C523.707 111.099 516.236 102.969 516.236 91.3965V47.6709C516.236 36.0986 523.78 27.9688 535.206 27.9688C540.919 27.9688 545.313 29.6533 548.316 32.1436C544.142 36.3184 541.651 41.1523 540.772 43.3496C540.553 43.9355 540.406 44.4482 540.406 45.2539C540.406 46.2061 541.285 47.1582 542.311 47.1582C543.409 47.1582 544.215 46.499 544.728 45.4004C546.559 41.4453 548.756 37.7832 551.539 35.1465C556.3 30.5322 562.306 27.9688 569.117 27.9688C584.352 27.9688 594.605 38.8086 594.605 58.877V91.3965C594.605 102.969 587.135 111.099 575.929 111.099C564.942 111.099 557.618 102.969 557.618 91.3965V62.6123C557.618 61.1475 556.959 60.1221 555.421 60.1221C553.883 60.1221 553.224 61.1475 553.224 62.6123V91.3965C553.224 102.969 545.899 111.099 534.986 111.099Z" fill="url(#gradient)"/>
<path d="M634.962 129.043C611.158 129.043 599.732 122.451 599.732 111.978C599.732 107.144 602.076 103.555 605.665 101.284C613.355 105.312 622.877 107.144 635.401 107.144C644.117 107.144 650.343 105.825 653.053 105.093C654.444 104.727 655.177 104.067 655.177 102.896C655.177 101.724 654.225 100.771 652.979 100.771C651.368 100.771 645.069 102.749 635.401 102.749C612.55 102.749 599.732 95.9375 599.732 84.292C599.732 78.2861 603.248 73.4521 608.961 71.0352C602.369 67.0068 598.634 60.5615 598.634 52.4316C598.634 37.5635 613.209 27.9688 635.987 27.9688C641.041 27.9688 645.802 28.5547 651.148 30.3857C651.295 23.8672 655.763 16.6162 664.991 16.6162C674 16.6162 679.2 23.1348 679.2 30.3857C679.2 39.541 670.191 47.4512 661.769 47.4512C659.352 47.4512 658.399 46.8652 657.081 46.8652C655.909 46.8652 654.957 47.7441 654.957 48.916C654.957 50.8203 658.033 51.8457 661.915 51.8457C665.504 51.8457 669.752 50.5273 672.608 48.623C673.194 50.0879 673.487 52.2852 673.487 54.5557C673.487 69.4238 657.521 78.7256 640.602 78.7256C633.937 78.7256 630.787 77.5537 629.249 77.5537C627.931 77.5537 626.979 78.4326 626.979 79.6777C626.979 80.6299 627.711 81.5088 628.59 81.8018C630.86 82.5342 636.134 83.1201 640.602 83.1201C647.12 83.1201 657.081 81.0693 663.673 77.1143C672.535 81.5088 676.783 90.2246 676.783 101.65C676.783 118.716 661.329 129.043 634.962 129.043ZM633.717 58.3643C633.717 59.7559 634.376 60.8545 635.914 60.8545C637.452 60.8545 638.111 59.7559 638.111 58.3643V47.9639C638.111 46.499 637.452 45.4736 635.914 45.4736C634.376 45.4736 633.717 46.499 633.717 47.9639V58.3643Z" fill="url(#gradient)"/>
<path d="M165.113 158.335C176.393 158.335 183.863 166.465 183.863 178.037V221.763C183.863 233.335 176.319 241.465 164.894 241.465C159.181 241.465 154.786 239.78 151.783 237.29C155.958 233.115 158.448 228.281 159.327 226.084C159.547 225.498 159.693 224.985 159.693 224.18C159.693 223.228 158.814 222.275 157.789 222.275C156.69 222.275 155.885 222.935 155.372 224.033C153.541 227.988 151.344 231.65 148.561 234.287C143.8 238.901 137.794 241.465 130.982 241.465C115.748 241.465 105.494 230.625 105.494 210.557V178.037C105.494 166.465 112.965 158.335 124.171 158.335C135.157 158.335 142.481 166.465 142.481 178.037V206.821C142.481 208.286 143.141 209.312 144.679 209.312C146.217 209.312 146.876 208.286 146.876 206.821V178.037C146.876 166.465 154.2 158.335 165.113 158.335Z" fill="url(#gradient)"/>
<path d="M207.008 241.099C195.729 241.099 188.258 232.969 188.258 221.396V177.671C188.258 166.099 195.802 157.969 207.228 157.969C212.94 157.969 217.335 159.653 220.338 162.144C216.163 166.318 213.673 171.152 212.794 173.35C212.574 173.936 212.428 174.448 212.428 175.254C212.428 176.206 213.307 177.158 214.332 177.158C215.431 177.158 216.236 176.499 216.749 175.4C218.58 171.445 220.777 167.783 223.561 165.146C228.321 160.532 234.327 157.969 241.139 157.969C256.373 157.969 266.627 168.809 266.627 188.877V221.396C266.627 232.969 259.156 241.099 247.95 241.099C236.964 241.099 229.64 232.969 229.64 221.396V192.612C229.64 191.147 228.98 190.122 227.442 190.122C225.904 190.122 225.245 191.147 225.245 192.612V221.396C225.245 232.969 217.921 241.099 207.008 241.099Z" fill="url(#gradient)"/>
<path d="M271.095 177.305C271.095 173.35 271.974 169.834 273.585 166.831C277.687 170.42 283.326 172.617 290.064 172.617C296.803 172.617 302.442 170.42 306.471 166.904C308.082 169.834 308.961 173.35 308.961 177.305V221.47C308.961 233.042 301.637 241.099 290.064 241.099C278.639 241.099 271.095 233.042 271.095 221.47V177.305ZM270.509 149.619C270.509 139.292 277.906 130.869 290.064 130.869C302.223 130.869 309.547 139.292 309.547 149.619C309.547 160.093 302.223 168.223 290.064 168.223C277.906 168.223 270.509 160.093 270.509 149.619Z" fill="url(#gradient)"/>
<path d="M377.516 259.043C366.31 259.043 359.498 252.305 358.839 243.662V243.442C369.898 238.755 374.366 229.307 375.392 226.963C375.685 226.304 376.051 225.352 376.051 224.692C376.051 223.447 375.172 222.495 374.073 222.495C373.048 222.495 372.315 223.008 371.876 223.96C367.848 233.921 358.253 241.465 346.607 241.465C326.686 241.465 312.77 226.45 312.77 199.717C312.77 172.983 326.686 157.969 346.607 157.969C358.326 157.969 367.701 164.268 372.022 175.181C372.535 176.499 373.121 177.158 374.22 177.158C375.465 177.158 376.271 176.206 376.271 174.961C376.271 172.031 372.096 165.146 367.628 161.265C370.191 159.36 373.78 157.969 377.516 157.969C388.941 157.969 396.485 165.293 396.485 175.62V240.879C396.485 251.719 388.648 259.043 377.516 259.043ZM348.219 210.483C348.219 211.875 348.878 212.974 350.416 212.974C351.954 212.974 352.613 211.875 352.613 210.483V188.364C352.613 186.899 351.954 185.874 350.416 185.874C348.878 185.874 348.219 186.899 348.219 188.364V210.483Z" fill="url(#gradient)"/>
<path d="M460.572 158.335C471.852 158.335 479.322 166.465 479.322 178.037V221.763C479.322 233.335 471.778 241.465 460.353 241.465C454.64 241.465 450.245 239.78 447.242 237.29C451.417 233.115 453.907 228.281 454.786 226.084C455.006 225.498 455.152 224.985 455.152 224.18C455.152 223.228 454.273 222.275 453.248 222.275C452.149 222.275 451.344 222.935 450.831 224.033C449 227.988 446.803 231.65 444.02 234.287C439.259 238.901 433.253 241.465 426.441 241.465C411.207 241.465 400.953 230.625 400.953 210.557V178.037C400.953 166.465 408.424 158.335 419.63 158.335C430.616 158.335 437.94 166.465 437.94 178.037V206.821C437.94 208.286 438.6 209.312 440.138 209.312C441.676 209.312 442.335 208.286 442.335 206.821V178.037C442.335 166.465 449.659 158.335 460.572 158.335Z" fill="url(#gradient)"/>
<path d="M525.318 241.465C498.292 241.465 482.984 224.326 482.984 199.424C482.984 174.961 497.706 157.969 522.169 157.969C545.826 157.969 560.841 171.372 560.841 188.584C560.841 198.179 557.545 203.599 551.246 207.261C545.973 207.993 536.671 208.506 531.983 208.506C521.949 208.506 518.507 206.968 517.042 206.968C515.797 206.968 514.845 207.847 514.845 209.019C514.845 210.117 515.577 210.923 516.749 211.289C519.386 212.095 525.245 212.9 531.983 212.9C536.744 212.9 544.874 212.021 548.756 212.021C554.615 212.021 559.083 215.903 559.083 223.081C559.083 233.701 544.801 241.465 525.318 241.465ZM519.752 190.635C519.752 192.026 520.411 193.125 521.949 193.125C523.487 193.125 524.146 192.026 524.146 190.635V180.234C524.146 178.77 523.487 177.744 521.949 177.744C520.411 177.744 519.752 178.77 519.752 180.234V190.635Z" fill="url(#gradient)"/>
<path d="M630.641 241.465C606.69 241.465 590.943 224.546 590.943 200.522V153.647C590.943 141.636 598.268 133.433 609.693 133.433C621.046 133.433 628.443 141.636 628.443 153.647V207.7C628.443 209.092 629.103 210.19 630.641 210.19C632.179 210.19 632.838 209.092 632.838 207.7V153.647C632.838 141.636 640.235 133.433 651.588 133.433C663.014 133.433 670.338 141.636 670.338 153.647V200.522C670.338 224.546 654.591 241.465 630.641 241.465Z" fill="url(#gradient)"/>
<path d="M696.852 241.099C685.133 241.099 677.662 232.822 677.662 220.811V153.647C677.662 141.636 685.133 133.433 696.852 133.433C708.57 133.433 716.041 141.636 716.041 153.647V220.811C716.041 232.822 708.57 241.099 696.852 241.099Z" fill="url(#gradient)"/>
<path d="M42.5791 371.465C15.5527 371.465 0.245117 354.326 0.245117 329.424C0.245117 304.961 14.9668 287.969 39.4297 287.969C63.0869 287.969 78.1016 301.372 78.1016 318.584C78.1016 328.179 74.8057 333.599 68.5068 337.261C63.2334 337.993 53.9316 338.506 49.2441 338.506C39.21 338.506 35.7676 336.968 34.3027 336.968C33.0576 336.968 32.1055 337.847 32.1055 339.019C32.1055 340.117 32.8379 340.923 34.0098 341.289C36.6465 342.095 42.5059 342.9 49.2441 342.9C54.0049 342.9 62.1348 342.021 66.0166 342.021C71.876 342.021 76.3438 345.903 76.3438 353.081C76.3438 363.701 62.0615 371.465 42.5791 371.465ZM37.0127 320.635C37.0127 322.026 37.6719 323.125 39.21 323.125C40.748 323.125 41.4072 322.026 41.4072 320.635V310.234C41.4072 308.77 40.748 307.744 39.21 307.744C37.6719 307.744 37.0127 308.77 37.0127 310.234V320.635Z" fill="url(#gradient)"/>
<path d="M95.8994 371.099C85.0596 371.099 79.127 364.067 79.127 356.084C79.127 353.154 80.0059 350.151 82.1299 346.416L91.2119 330.522L81.6172 313.018C79.6396 309.355 79.3467 306.279 79.3467 303.35C79.3467 295.366 86.8906 288.335 97.584 288.335C105.274 288.335 110.621 293.022 114.43 300.127L119.703 309.941C122.34 314.849 123.072 317.632 123.585 320.049C123.805 320.928 124.464 321.953 125.782 321.953C127.027 321.953 127.906 320.928 127.906 319.683C127.906 317.778 126.002 312.725 125.123 310.894L121.388 303.643C126.808 292.656 131.056 288.335 139.918 288.335C150.758 288.335 156.69 295.366 156.69 303.35C156.69 306.279 155.812 309.282 153.688 313.018L144.605 328.911L154.2 346.416C156.178 350.078 156.471 353.154 156.471 356.084C156.471 364.067 148.927 371.099 138.233 371.099C130.543 371.099 125.196 366.411 121.388 359.307L116.114 349.492C113.478 344.512 112.745 341.802 112.159 339.385C111.939 338.433 111.28 337.48 110.035 337.48C108.79 337.48 107.911 338.506 107.911 339.751C107.911 341.655 109.742 346.636 110.694 348.467L114.43 355.718C109.229 366.484 104.688 371.099 95.8994 371.099Z" fill="url(#gradient)"/>
<path d="M179.469 389.043C168.336 389.043 160.499 381.719 160.499 370.879V305.62C160.499 295.293 168.043 287.969 179.469 287.969C183.204 287.969 186.793 289.36 189.356 291.265C184.889 295.146 180.714 302.031 180.714 304.961C180.714 306.206 181.52 307.158 182.765 307.158C183.863 307.158 184.449 306.499 184.962 305.181C189.283 294.268 198.658 287.969 210.377 287.969C230.299 287.969 244.215 302.983 244.215 329.717C244.215 356.45 230.299 371.465 210.377 371.465C198.731 371.465 189.137 363.921 185.108 353.96C184.669 353.008 183.937 352.495 182.911 352.495C181.812 352.495 180.934 353.447 180.934 354.692C180.934 355.352 181.3 356.304 181.593 356.963C182.618 359.307 187.086 368.755 198.146 373.442V373.662C197.486 382.305 190.675 389.043 179.469 389.043ZM204.371 340.483C204.371 341.875 205.03 342.974 206.568 342.974C208.106 342.974 208.766 341.875 208.766 340.483V318.364C208.766 316.899 208.106 315.874 206.568 315.874C205.03 315.874 204.371 316.899 204.371 318.364V340.483Z" fill="url(#gradient)"/>
<path d="M289.259 371.465C262.232 371.465 246.925 354.326 246.925 329.424C246.925 304.961 261.646 287.969 286.109 287.969C309.767 287.969 324.781 301.372 324.781 318.584C324.781 328.179 321.485 333.599 315.187 337.261C309.913 337.993 300.611 338.506 295.924 338.506C285.89 338.506 282.447 336.968 280.982 336.968C279.737 336.968 278.785 337.847 278.785 339.019C278.785 340.117 279.518 340.923 280.689 341.289C283.326 342.095 289.186 342.9 295.924 342.9C300.685 342.9 308.814 342.021 312.696 342.021C318.556 342.021 323.023 345.903 323.023 353.081C323.023 363.701 308.741 371.465 289.259 371.465ZM283.692 320.635C283.692 322.026 284.352 323.125 285.89 323.125C287.428 323.125 288.087 322.026 288.087 320.635V310.234C288.087 308.77 287.428 307.744 285.89 307.744C284.352 307.744 283.692 308.77 283.692 310.234V320.635Z" fill="url(#gradient)"/>
<path d="M347.486 371.099C336.207 371.099 328.517 363.115 328.517 351.396V307.744C328.517 295.952 335.987 287.969 347.926 287.969C351.734 287.969 354.737 288.701 356.788 289.873C354.151 293.242 352.54 296.465 351.515 299.248C351.368 299.761 351.002 300.713 351.002 301.372C351.002 302.471 351.881 303.423 353.053 303.423C354.298 303.423 355.03 302.544 355.323 301.665C356.495 298.516 358.619 294.121 361.256 291.411C363.307 289.287 366.822 287.969 371.07 287.969C381.983 287.969 389.308 296.611 389.308 309.575C389.308 322.466 382.057 331.182 370.997 331.182C364.332 331.182 359.132 325.688 356.935 321.587C356.422 320.781 355.763 320.269 354.811 320.269C353.639 320.269 352.76 321.221 352.76 322.466C352.76 323.052 352.979 323.638 353.419 324.443C355.616 328.252 361.183 333.672 366.383 334.917V351.396C366.383 363.115 358.692 371.099 347.486 371.099Z" fill="url(#gradient)"/>
<path d="M392.75 307.305C392.75 303.35 393.629 299.834 395.24 296.831C399.342 300.42 404.981 302.617 411.72 302.617C418.458 302.617 424.098 300.42 428.126 296.904C429.737 299.834 430.616 303.35 430.616 307.305V351.47C430.616 363.042 423.292 371.099 411.72 371.099C400.294 371.099 392.75 363.042 392.75 351.47V307.305ZM392.164 279.619C392.164 269.292 399.562 260.869 411.72 260.869C423.878 260.869 431.202 269.292 431.202 279.619C431.202 290.093 423.878 298.223 411.72 298.223C399.562 298.223 392.164 290.093 392.164 279.619Z" fill="url(#gradient)"/>
<path d="M476.759 371.465C449.732 371.465 434.425 354.326 434.425 329.424C434.425 304.961 449.146 287.969 473.609 287.969C497.267 287.969 512.281 301.372 512.281 318.584C512.281 328.179 508.985 333.599 502.687 337.261C497.413 337.993 488.111 338.506 483.424 338.506C473.39 338.506 469.947 336.968 468.482 336.968C467.237 336.968 466.285 337.847 466.285 339.019C466.285 340.117 467.018 340.923 468.189 341.289C470.826 342.095 476.686 342.9 483.424 342.9C488.185 342.9 496.314 342.021 500.196 342.021C506.056 342.021 510.523 345.903 510.523 353.081C510.523 363.701 496.241 371.465 476.759 371.465ZM471.192 320.635C471.192 322.026 471.852 323.125 473.39 323.125C474.928 323.125 475.587 322.026 475.587 320.635V310.234C475.587 308.77 474.928 307.744 473.39 307.744C471.852 307.744 471.192 308.77 471.192 310.234V320.635Z" fill="url(#gradient)"/>
<path d="M534.767 371.099C523.487 371.099 516.017 362.969 516.017 351.396V307.671C516.017 296.099 523.561 287.969 534.986 287.969C540.699 287.969 545.094 289.653 548.097 292.144C543.922 296.318 541.432 301.152 540.553 303.35C540.333 303.936 540.187 304.448 540.187 305.254C540.187 306.206 541.065 307.158 542.091 307.158C543.189 307.158 543.995 306.499 544.508 305.4C546.339 301.445 548.536 297.783 551.319 295.146C556.08 290.532 562.086 287.969 568.897 287.969C584.132 287.969 594.386 298.809 594.386 318.877V351.396C594.386 362.969 586.915 371.099 575.709 371.099C564.723 371.099 557.398 362.969 557.398 351.396V322.612C557.398 321.147 556.739 320.122 555.201 320.122C553.663 320.122 553.004 321.147 553.004 322.612V351.396C553.004 362.969 545.68 371.099 534.767 371.099Z" fill="url(#gradient)"/>
<path d="M637.818 371.465C613.795 371.465 598.048 354.912 598.048 329.717C598.048 304.521 613.795 287.969 637.818 287.969C659.645 287.969 672.389 298.955 672.389 310.674C672.389 321.001 665.504 327.52 654.957 327.52C649.83 327.52 642.726 327.52 638.404 325.908V319.023C638.404 317.559 637.745 316.533 636.207 316.533C634.669 316.533 634.01 317.559 634.01 319.023V340.41C634.01 341.802 634.669 342.9 636.207 342.9C637.745 342.9 638.404 341.802 638.404 340.41V333.452C642.726 331.914 649.83 331.914 654.957 331.914C665.504 331.914 672.389 338.359 672.389 348.76C672.389 360.405 659.645 371.465 637.818 371.465Z" fill="url(#gradient)"/>
<path d="M716.407 371.465C689.381 371.465 674.073 354.326 674.073 329.424C674.073 304.961 688.795 287.969 713.258 287.969C736.915 287.969 751.93 301.372 751.93 318.584C751.93 328.179 748.634 333.599 742.335 337.261C737.062 337.993 727.76 338.506 723.072 338.506C713.038 338.506 709.596 336.968 708.131 336.968C706.886 336.968 705.934 337.847 705.934 339.019C705.934 340.117 706.666 340.923 707.838 341.289C710.475 342.095 716.334 342.9 723.072 342.9C727.833 342.9 735.963 342.021 739.845 342.021C745.704 342.021 750.172 345.903 750.172 353.081C750.172 363.701 735.89 371.465 716.407 371.465ZM710.841 320.635C710.841 322.026 711.5 323.125 713.038 323.125C714.576 323.125 715.235 322.026 715.235 320.635V310.234C715.235 308.77 714.576 307.744 713.038 307.744C711.5 307.744 710.841 308.77 710.841 310.234V320.635Z" fill="url(#gradient)"/>
<path d="M788.404 371.465C766.944 371.465 753.395 363.848 753.395 353.887C753.395 346.05 759.4 340.85 768.116 340.85C774.708 340.85 782.984 342.021 789.503 344.731C790.821 345.317 792.286 346.196 793.458 346.196C794.63 346.196 795.582 345.317 795.582 344.072C795.582 343.12 794.923 342.461 793.971 341.948C784.376 337.188 772.071 335.942 765.699 336.748C760.279 332.866 755.372 326.567 755.372 315.654C755.372 299.102 768.043 287.969 789.283 287.969C809.645 287.969 821.437 294.854 821.437 304.302C821.437 312.432 815.431 317.339 806.715 317.339C797.926 317.339 790.309 315.508 784.229 312.578C783.57 312.285 783.058 311.992 782.325 311.992C781.227 311.992 780.201 312.871 780.201 314.189C780.201 315.361 781.227 316.094 782.618 316.753C789.356 319.756 800.416 322.539 809.718 321.294C815.65 324.297 822.535 331.035 822.535 342.314C822.535 359.38 810.23 371.465 788.404 371.465Z" fill="url(#gradient)"/>
<defs>
<linearGradient id="gradient" x1="-32" y1="385" x2="255.394" y2="-268.637" gradientUnits="userSpaceOnUse">
<stop stop-color="#F2DF0D"/>
<stop offset="0.29" stop-color="#B9F20D"/>
<stop offset="0.43" stop-color="#70F20D"/>
<stop offset="0.52" stop-color="#18F20D"/>
<stop offset="0.61" stop-color="#0DF269"/>
<stop offset="1" stop-color="#0DF2CC"/>
</linearGradient>
</defs>
</svg>
