<svg viewBox="0 0 64 64" fill="none" xmlns="http://www.w3.org/2000/svg">
<path d="M63.7717 29.7333C61.9605 14.1237 48.7125 2 32.6165 2H29.9883C13.4251 2 0 15.4251 0 31.9883C0 37.8123 4.72107 42.5333 10.5451 42.5333H14.9867C15.5264 48.5131 20.5461 53.2 26.6667 53.2H49.0667C55.8293 53.2 61.536 48.7008 63.3728 42.5333C63.776 41.1808 64 39.7493 64 38.2667V33.3835C64 32.1461 63.9104 30.9323 63.7717 29.7333Z" fill="url(#paint0_linear_2119_71)"/>
<path d="M50.79 53V60.8746C50.79 62.3341 49.0246 63.0661 47.9933 62.0326L39 53.0393L50.79 53Z" fill="url(#paint1_linear_2119_71)"/>
<defs>
<linearGradient id="paint0_linear_2119_71" x1="14" y1="11" x2="47.5" y2="59.5" gradientUnits="userSpaceOnUse">
<stop stop-color="#0EF28C"/>
<stop offset="0.489583" stop-color="#82EA4A"/>
<stop offset="1" stop-color="#EBE20E"/>
</linearGradient>
<linearGradient id="paint1_linear_2119_71" x1="14" y1="11" x2="47.5" y2="59.5" gradientUnits="userSpaceOnUse">
<stop stop-color="#0EF28C"/>
<stop offset="0.489583" stop-color="#82EA4A"/>
<stop offset="1" stop-color="#EBE20E"/>
</linearGradient>
</defs>
</svg>
