<svg width="32" height="32" viewBox="0 0 32 32" fill="none" xmlns="http://www.w3.org/2000/svg">
<path d="M16 4C10.1067 4 5.33337 6.38667 5.33337 9.33333C5.33337 12.28 10.1067 14.6667 16 14.6667C21.8934 14.6667 26.6667 12.28 26.6667 9.33333C26.6667 6.38667 21.8934 4 16 4ZM5.33337 12V16C5.33337 18.9467 10.1067 21.3333 16 21.3333C21.8934 21.3333 26.6667 18.9467 26.6667 16V12C26.6667 14.9467 21.8934 17.3333 16 17.3333C10.1067 17.3333 5.33337 14.9467 5.33337 12ZM5.33337 18.6667V22.6667C5.33337 25.6133 10.1067 28 16 28C21.8934 28 26.6667 25.6133 26.6667 22.6667V18.6667C26.6667 21.6133 21.8934 24 16 24C10.1067 24 5.33337 21.6133 5.33337 18.6667Z" fill="url(#paint0_linear_2306_5)"/>
<defs>
<linearGradient id="paint0_linear_2306_5" x1="5.33337" y1="28" x2="29.1679" y2="6.81379" gradientUnits="userSpaceOnUse">
<stop stop-color="#AE80FF"/>
<stop offset="0.25" stop-color="#CB48E5"/>
<stop offset="0.5" stop-color="#E750CE"/>
<stop offset="0.75" stop-color="#F75EBA"/>
<stop offset="1" stop-color="#FF75AC"/>
</linearGradient>
</defs>
</svg>
