<svg viewBox="0 0 605 386" fill="none"
    xmlns="http://www.w3.org/2000/svg">
    <path d="M179.736 107.666C191.309 107.666 198.633 99.6094 198.633 88.0371V19.6289C198.633 8.05664 191.089 0 179.736 0C168.311 0 160.767 8.05664 160.767 19.6289V88.0371C160.767 99.6094 168.311 107.666 179.736 107.666Z" fill="url(#gradient)"></path>
    <path d="M244.702 108.032C264.185 108.032 278.467 100.269 278.467 89.6484C278.467 82.4707 273.999 78.5889 268.14 78.5889C264.258 78.5889 256.128 79.4678 251.367 79.4678C244.629 79.4678 238.77 78.6621 236.133 77.8564C234.961 77.4902 234.229 76.6846 234.229 75.5859C234.229 74.4141 235.181 73.5352 236.426 73.5352C237.891 73.5352 241.333 75.0732 251.367 75.0732C256.055 75.0732 265.356 74.5605 270.63 73.8281C276.929 70.166 280.225 64.7461 280.225 55.1514C280.225 37.9395 265.21 24.5361 241.553 24.5361C217.09 24.5361 202.368 41.5283 202.368 65.9912C202.368 90.8936 217.676 108.032 244.702 108.032ZM239.136 57.2021V46.8018C239.136 45.3369 239.795 44.3115 241.333 44.3115C242.871 44.3115 243.53 45.3369 243.53 46.8018V57.2021C243.53 58.5938 242.871 59.6924 241.333 59.6924C239.795 59.6924 239.136 58.5938 239.136 57.2021Z" fill="url(#gradient)"></path>
    <path d="M309.814 108.032C321.899 108.032 329.37 99.5361 333.618 88.8428C334.277 87.3047 335.083 87.0117 335.889 87.0117C336.914 87.0117 337.939 87.8174 337.939 89.1357C337.939 89.5752 337.793 90.0879 337.5 90.9668C336.035 94.8486 332.666 100.488 329.517 103.857C331.567 106.274 336.621 108.032 340.869 108.032C352.295 108.032 359.839 100.488 359.839 89.8682V59.6924C359.839 38.3789 345.264 24.5361 322.705 24.5361C300.293 24.5361 282.935 35.6689 282.935 50.0977C282.935 59.3994 290.405 64.6729 298.682 64.6729C306.519 64.6729 313.184 58.8867 313.623 50.5371C313.77 48.6328 314.502 47.9004 315.82 47.9004C317.139 47.9004 317.944 48.7793 317.944 50.9033C317.944 60.0586 309.668 69.0674 298.755 69.0674C295.459 69.0674 291.724 68.335 288.867 66.7969C285.791 70.8252 284.18 74.9268 284.18 81.0059C284.18 97.0459 295.239 108.032 309.814 108.032ZM321.167 78.8818V69.9463C321.167 68.4814 321.826 67.4561 323.364 67.4561C324.902 67.4561 325.562 68.4814 325.562 69.9463V78.8818C325.562 80.2734 324.902 81.3721 323.364 81.3721C321.826 81.3721 321.167 80.2734 321.167 78.8818Z" fill="url(#gradient)"></path>
    <path d="M382.983 107.666C393.896 107.666 401.221 99.5361 401.221 87.9639V59.1797C401.221 57.7148 401.88 56.6895 403.418 56.6895C404.956 56.6895 405.615 57.7148 405.615 59.1797V87.9639C405.615 99.5361 412.939 107.666 423.926 107.666C435.132 107.666 442.603 99.5361 442.603 87.9639V55.4443C442.603 35.376 432.349 24.5361 417.114 24.5361C410.303 24.5361 404.297 27.0996 399.536 31.7139C396.753 34.3506 394.556 38.0127 392.725 41.9678C392.212 43.0664 391.406 43.7256 390.308 43.7256C389.282 43.7256 388.403 42.7734 388.403 41.8213C388.403 41.0156 388.55 40.5029 388.77 39.917C389.648 37.7197 392.139 32.8857 396.313 28.7109C393.311 26.2207 388.916 24.5361 383.203 24.5361C371.777 24.5361 364.233 32.666 364.233 44.2383V87.9639C364.233 99.5361 371.704 107.666 382.983 107.666Z" fill="url(#gradient)"></path>
    <path d="M18.9697 237.666C30.542 237.666 37.8662 229.609 37.8662 218.037V149.629C37.8662 138.057 30.3223 130 18.9697 130C7.54395 130 0 138.057 0 149.629V218.037C0 229.609 7.54395 237.666 18.9697 237.666Z" fill="url(#gradient)"></path>
    <path d="M68.4814 238.032C80.5664 238.032 88.0371 229.536 92.2852 218.843C92.9443 217.305 93.75 217.012 94.5557 217.012C95.5811 217.012 96.6064 217.817 96.6064 219.136C96.6064 219.575 96.46 220.088 96.167 220.967C94.7021 224.849 91.333 230.488 88.1836 233.857C90.2344 236.274 95.2881 238.032 99.5361 238.032C110.962 238.032 118.506 230.488 118.506 219.868V189.692C118.506 168.379 103.931 154.536 81.3721 154.536C58.96 154.536 41.6016 165.669 41.6016 180.098C41.6016 189.399 49.0723 194.673 57.3486 194.673C65.1855 194.673 71.8506 188.887 72.29 180.537C72.4365 178.633 73.1689 177.9 74.4873 177.9C75.8057 177.9 76.6113 178.779 76.6113 180.903C76.6113 190.059 68.335 199.067 57.4219 199.067C54.126 199.067 50.3906 198.335 47.5342 196.797C44.458 200.825 42.8467 204.927 42.8467 211.006C42.8467 227.046 53.9062 238.032 68.4814 238.032ZM79.834 208.882V199.946C79.834 198.481 80.4932 197.456 82.0312 197.456C83.5693 197.456 84.2285 198.481 84.2285 199.946V208.882C84.2285 210.273 83.5693 211.372 82.0312 211.372C80.4932 211.372 79.834 210.273 79.834 208.882Z" fill="url(#gradient)"></path>
    <path d="M141.65 237.666C152.563 237.666 159.888 229.536 159.888 217.964V189.18C159.888 187.715 160.547 186.689 162.085 186.689C163.623 186.689 164.282 187.715 164.282 189.18V217.964C164.282 229.536 171.606 237.666 182.593 237.666C193.799 237.666 201.27 229.536 201.27 217.964V185.444C201.27 165.376 191.016 154.536 175.781 154.536C168.97 154.536 162.964 157.1 158.203 161.714C155.42 164.351 153.223 168.013 151.392 171.968C150.879 173.066 150.073 173.726 148.975 173.726C147.949 173.726 147.07 172.773 147.07 171.821C147.07 171.016 147.217 170.503 147.437 169.917C148.315 167.72 150.806 162.886 154.98 158.711C151.978 156.221 147.583 154.536 141.87 154.536C130.444 154.536 122.9 162.666 122.9 174.238V217.964C122.9 229.536 130.371 237.666 141.65 237.666Z" fill="url(#gradient)"></path>
    <path d="M241.626 255.61C267.993 255.61 283.447 245.283 283.447 228.218C283.447 216.792 279.199 208.076 270.337 203.682C263.745 207.637 253.784 209.688 247.266 209.688C242.798 209.688 237.524 209.102 235.254 208.369C234.375 208.076 233.643 207.197 233.643 206.245C233.643 205 234.595 204.121 235.913 204.121C237.451 204.121 240.601 205.293 247.266 205.293C264.185 205.293 280.151 195.991 280.151 181.123C280.151 178.853 279.858 176.655 279.272 175.19C276.416 177.095 272.168 178.413 268.579 178.413C264.697 178.413 261.621 177.388 261.621 175.483C261.621 174.312 262.573 173.433 263.745 173.433C265.063 173.433 266.016 174.019 268.433 174.019C276.855 174.019 285.864 166.108 285.864 156.953C285.864 149.702 280.664 143.184 271.655 143.184C262.427 143.184 257.959 150.435 257.812 156.953C252.466 155.122 247.705 154.536 242.651 154.536C219.873 154.536 205.298 164.131 205.298 178.999C205.298 187.129 209.033 193.574 215.625 197.603C209.912 200.02 206.396 204.854 206.396 210.859C206.396 222.505 219.214 229.316 242.065 229.316C251.733 229.316 258.032 227.339 259.644 227.339C260.889 227.339 261.841 228.291 261.841 229.463C261.841 230.635 261.108 231.294 259.717 231.66C257.007 232.393 250.781 233.711 242.065 233.711C229.541 233.711 220.02 231.88 212.329 227.852C208.74 230.122 206.396 233.711 206.396 238.545C206.396 249.019 217.822 255.61 241.626 255.61ZM240.381 184.932V174.531C240.381 173.066 241.04 172.041 242.578 172.041C244.116 172.041 244.775 173.066 244.775 174.531V184.932C244.775 186.323 244.116 187.422 242.578 187.422C241.04 187.422 240.381 186.323 240.381 184.932Z" fill="url(#gradient)"></path>
    <path d="M345.41 154.902C334.497 154.902 327.173 163.032 327.173 174.604V203.389C327.173 204.854 326.514 205.879 324.976 205.879C323.438 205.879 322.778 204.854 322.778 203.389V174.604C322.778 163.032 315.454 154.902 304.468 154.902C293.262 154.902 285.791 163.032 285.791 174.604V207.124C285.791 227.192 296.045 238.032 311.279 238.032C318.091 238.032 324.097 235.469 328.857 230.854C331.641 228.218 333.838 224.556 335.669 220.601C336.182 219.502 336.987 218.843 338.086 218.843C339.111 218.843 339.99 219.795 339.99 220.747C339.99 221.553 339.844 222.065 339.624 222.651C338.745 224.849 336.255 229.683 332.08 233.857C335.083 236.348 339.478 238.032 345.19 238.032C356.616 238.032 364.16 229.902 364.16 218.33V174.604C364.16 163.032 356.689 154.902 345.41 154.902Z" fill="url(#gradient)"></path>
    <path d="M394.702 238.032C406.787 238.032 414.258 229.536 418.506 218.843C419.165 217.305 419.971 217.012 420.776 217.012C421.802 217.012 422.827 217.817 422.827 219.136C422.827 219.575 422.681 220.088 422.388 220.967C420.923 224.849 417.554 230.488 414.404 233.857C416.455 236.274 421.509 238.032 425.757 238.032C437.183 238.032 444.727 230.488 444.727 219.868V189.692C444.727 168.379 430.151 154.536 407.593 154.536C385.181 154.536 367.822 165.669 367.822 180.098C367.822 189.399 375.293 194.673 383.569 194.673C391.406 194.673 398.071 188.887 398.511 180.537C398.657 178.633 399.39 177.9 400.708 177.9C402.026 177.9 402.832 178.779 402.832 180.903C402.832 190.059 394.556 199.067 383.643 199.067C380.347 199.067 376.611 198.335 373.755 196.797C370.679 200.825 369.067 204.927 369.067 211.006C369.067 227.046 380.127 238.032 394.702 238.032ZM406.055 208.882V199.946C406.055 198.481 406.714 197.456 408.252 197.456C409.79 197.456 410.449 198.481 410.449 199.946V208.882C410.449 210.273 409.79 211.372 408.252 211.372C406.714 211.372 406.055 210.273 406.055 208.882Z" fill="url(#gradient)"></path>
    <path d="M485.083 255.61C511.45 255.61 526.904 245.283 526.904 228.218C526.904 216.792 522.656 208.076 513.794 203.682C507.202 207.637 497.241 209.688 490.723 209.688C486.255 209.688 480.981 209.102 478.711 208.369C477.832 208.076 477.1 207.197 477.1 206.245C477.1 205 478.052 204.121 479.37 204.121C480.908 204.121 484.058 205.293 490.723 205.293C507.642 205.293 523.608 195.991 523.608 181.123C523.608 178.853 523.315 176.655 522.729 175.19C519.873 177.095 515.625 178.413 512.036 178.413C508.154 178.413 505.078 177.388 505.078 175.483C505.078 174.312 506.03 173.433 507.202 173.433C508.521 173.433 509.473 174.019 511.89 174.019C520.312 174.019 529.321 166.108 529.321 156.953C529.321 149.702 524.121 143.184 515.112 143.184C505.884 143.184 501.416 150.435 501.27 156.953C495.923 155.122 491.162 154.536 486.108 154.536C463.33 154.536 448.755 164.131 448.755 178.999C448.755 187.129 452.49 193.574 459.082 197.603C453.369 200.02 449.854 204.854 449.854 210.859C449.854 222.505 462.671 229.316 485.522 229.316C495.19 229.316 501.489 227.339 503.101 227.339C504.346 227.339 505.298 228.291 505.298 229.463C505.298 230.635 504.565 231.294 503.174 231.66C500.464 232.393 494.238 233.711 485.522 233.711C472.998 233.711 463.477 231.88 455.786 227.852C452.197 230.122 449.854 233.711 449.854 238.545C449.854 249.019 461.279 255.61 485.083 255.61ZM483.838 184.932V174.531C483.838 173.066 484.497 172.041 486.035 172.041C487.573 172.041 488.232 173.066 488.232 174.531V184.932C488.232 186.323 487.573 187.422 486.035 187.422C484.497 187.422 483.838 186.323 483.838 184.932Z" fill="url(#gradient)"></path>
    <path d="M568.506 238.032C587.988 238.032 602.271 230.269 602.271 219.648C602.271 212.471 597.803 208.589 591.943 208.589C588.062 208.589 579.932 209.468 575.171 209.468C568.433 209.468 562.573 208.662 559.937 207.856C558.765 207.49 558.032 206.685 558.032 205.586C558.032 204.414 558.984 203.535 560.229 203.535C561.694 203.535 565.137 205.073 575.171 205.073C579.858 205.073 589.16 204.561 594.434 203.828C600.732 200.166 604.028 194.746 604.028 185.151C604.028 167.939 589.014 154.536 565.356 154.536C540.894 154.536 526.172 171.528 526.172 195.991C526.172 220.894 541.479 238.032 568.506 238.032ZM562.939 187.202V176.802C562.939 175.337 563.599 174.312 565.137 174.312C566.675 174.312 567.334 175.337 567.334 176.802V187.202C567.334 188.594 566.675 189.692 565.137 189.692C563.599 189.692 562.939 188.594 562.939 187.202Z" fill="url(#gradient)"></path>
    <path d="M44.1768 367.666C55.749 367.666 63.0732 359.609 63.0732 348.037V279.629C63.0732 268.057 55.5293 260 44.1768 260C32.751 260 25.207 268.057 25.207 279.629V348.037C25.207 359.609 32.751 367.666 44.1768 367.666Z" fill="url(#gradient)"></path>
    <path d="M109.143 368.032C128.625 368.032 142.907 360.269 142.907 349.648C142.907 342.471 138.439 338.589 132.58 338.589C128.698 338.589 120.568 339.468 115.808 339.468C109.069 339.468 103.21 338.662 100.573 337.856C99.4014 337.49 98.6689 336.685 98.6689 335.586C98.6689 334.414 99.6211 333.535 100.866 333.535C102.331 333.535 105.773 335.073 115.808 335.073C120.495 335.073 129.797 334.561 135.07 333.828C141.369 330.166 144.665 324.746 144.665 315.151C144.665 297.939 129.65 284.536 105.993 284.536C81.5303 284.536 66.8086 301.528 66.8086 325.991C66.8086 350.894 82.1162 368.032 109.143 368.032ZM103.576 317.202V306.802C103.576 305.337 104.235 304.312 105.773 304.312C107.312 304.312 107.971 305.337 107.971 306.802V317.202C107.971 318.594 107.312 319.692 105.773 319.692C104.235 319.692 103.576 318.594 103.576 317.202Z" fill="url(#gradient)"></path>
    <path d="M174.255 368.032C186.34 368.032 193.811 359.536 198.059 348.843C198.718 347.305 199.523 347.012 200.329 347.012C201.354 347.012 202.38 347.817 202.38 349.136C202.38 349.575 202.233 350.088 201.94 350.967C200.476 354.849 197.106 360.488 193.957 363.857C196.008 366.274 201.062 368.032 205.31 368.032C216.735 368.032 224.279 360.488 224.279 349.868V319.692C224.279 298.379 209.704 284.536 187.146 284.536C164.733 284.536 147.375 295.669 147.375 310.098C147.375 319.399 154.846 324.673 163.122 324.673C170.959 324.673 177.624 318.887 178.063 310.537C178.21 308.633 178.942 307.9 180.261 307.9C181.579 307.9 182.385 308.779 182.385 310.903C182.385 320.059 174.108 329.067 163.195 329.067C159.899 329.067 156.164 328.335 153.308 326.797C150.231 330.825 148.62 334.927 148.62 341.006C148.62 357.046 159.68 368.032 174.255 368.032ZM185.607 338.882V329.946C185.607 328.481 186.267 327.456 187.805 327.456C189.343 327.456 190.002 328.481 190.002 329.946V338.882C190.002 340.273 189.343 341.372 187.805 341.372C186.267 341.372 185.607 340.273 185.607 338.882Z" fill="url(#gradient)"></path>
    <path d="M247.644 367.666C258.85 367.666 266.54 359.683 266.54 347.964V331.484C261.34 330.239 255.773 324.819 253.576 321.011C253.137 320.205 252.917 319.619 252.917 319.033C252.917 317.788 253.796 316.836 254.968 316.836C255.92 316.836 256.579 317.349 257.092 318.154C259.289 322.256 264.489 327.749 271.154 327.749C282.214 327.749 289.465 319.033 289.465 306.143C289.465 293.179 282.141 284.536 271.228 284.536C266.979 284.536 263.464 285.854 261.413 287.979C258.776 290.688 256.652 295.083 255.48 298.232C255.188 299.111 254.455 299.99 253.21 299.99C252.038 299.99 251.159 299.038 251.159 297.939C251.159 297.28 251.525 296.328 251.672 295.815C252.697 293.032 254.309 289.81 256.945 286.44C254.895 285.269 251.892 284.536 248.083 284.536C236.145 284.536 228.674 292.52 228.674 304.312V347.964C228.674 359.683 236.364 367.666 247.644 367.666Z" fill="url(#gradient)"></path>
    <path d="M311.584 367.666C322.497 367.666 329.821 359.536 329.821 347.964V319.18C329.821 317.715 330.48 316.689 332.019 316.689C333.557 316.689 334.216 317.715 334.216 319.18V347.964C334.216 359.536 341.54 367.666 352.526 367.666C363.732 367.666 371.203 359.536 371.203 347.964V315.444C371.203 295.376 360.949 284.536 345.715 284.536C338.903 284.536 332.897 287.1 328.137 291.714C325.354 294.351 323.156 298.013 321.325 301.968C320.812 303.066 320.007 303.726 318.908 303.726C317.883 303.726 317.004 302.773 317.004 301.821C317.004 301.016 317.15 300.503 317.37 299.917C318.249 297.72 320.739 292.886 324.914 288.711C321.911 286.221 317.517 284.536 311.804 284.536C300.378 284.536 292.834 292.666 292.834 304.238V347.964C292.834 359.536 300.305 367.666 311.584 367.666Z" fill="url(#gradient)"></path>
    <path d="M375.671 303.872V348.037C375.671 359.609 383.215 367.666 394.641 367.666C406.213 367.666 413.537 359.609 413.537 348.037V303.872C413.537 299.917 412.658 296.401 411.047 293.472C407.019 296.987 401.379 299.185 394.641 299.185C387.902 299.185 382.263 296.987 378.161 293.398C376.55 296.401 375.671 299.917 375.671 303.872ZM375.085 276.187C375.085 286.66 382.482 294.79 394.641 294.79C406.799 294.79 414.123 286.66 414.123 276.187C414.123 265.859 406.799 257.437 394.641 257.437C382.482 257.437 375.085 265.859 375.085 276.187Z" fill="url(#gradient)"></path>
    <path d="M436.828 367.666C447.741 367.666 455.065 359.536 455.065 347.964V319.18C455.065 317.715 455.725 316.689 457.263 316.689C458.801 316.689 459.46 317.715 459.46 319.18V347.964C459.46 359.536 466.784 367.666 477.771 367.666C488.977 367.666 496.447 359.536 496.447 347.964V315.444C496.447 295.376 486.193 284.536 470.959 284.536C464.147 284.536 458.142 287.1 453.381 291.714C450.598 294.351 448.4 298.013 446.569 301.968C446.057 303.066 445.251 303.726 444.152 303.726C443.127 303.726 442.248 302.773 442.248 301.821C442.248 301.016 442.395 300.503 442.614 299.917C443.493 297.72 445.983 292.886 450.158 288.711C447.155 286.221 442.761 284.536 437.048 284.536C425.622 284.536 418.078 292.666 418.078 304.238V347.964C418.078 359.536 425.549 367.666 436.828 367.666Z" fill="url(#gradient)"></path>
    <path d="M536.804 385.61C563.171 385.61 578.625 375.283 578.625 358.218C578.625 346.792 574.377 338.076 565.515 333.682C558.923 337.637 548.962 339.688 542.443 339.688C537.976 339.688 532.702 339.102 530.432 338.369C529.553 338.076 528.82 337.197 528.82 336.245C528.82 335 529.772 334.121 531.091 334.121C532.629 334.121 535.778 335.293 542.443 335.293C559.362 335.293 575.329 325.991 575.329 311.123C575.329 308.853 575.036 306.655 574.45 305.19C571.594 307.095 567.346 308.413 563.757 308.413C559.875 308.413 556.799 307.388 556.799 305.483C556.799 304.312 557.751 303.433 558.923 303.433C560.241 303.433 561.193 304.019 563.61 304.019C572.033 304.019 581.042 296.108 581.042 286.953C581.042 279.702 575.842 273.184 566.833 273.184C557.604 273.184 553.137 280.435 552.99 286.953C547.644 285.122 542.883 284.536 537.829 284.536C515.051 284.536 500.476 294.131 500.476 308.999C500.476 317.129 504.211 323.574 510.803 327.603C505.09 330.02 501.574 334.854 501.574 340.859C501.574 352.505 514.392 359.316 537.243 359.316C546.911 359.316 553.21 357.339 554.821 357.339C556.066 357.339 557.019 358.291 557.019 359.463C557.019 360.635 556.286 361.294 554.895 361.66C552.185 362.393 545.959 363.711 537.243 363.711C524.719 363.711 515.197 361.88 507.507 357.852C503.918 360.122 501.574 363.711 501.574 368.545C501.574 379.019 513 385.61 536.804 385.61ZM535.559 314.932V304.531C535.559 303.066 536.218 302.041 537.756 302.041C539.294 302.041 539.953 303.066 539.953 304.531V314.932C539.953 316.323 539.294 317.422 537.756 317.422C536.218 317.422 535.559 316.323 535.559 314.932Z" fill="url(#gradient)"></path>
    <defs>
        <linearGradient id="gradient" x1="-2.36425" y1="381.567" x2="345.976" y2="-183.815" gradientUnits="userSpaceOnUse">
<stop stop-color="#F2DF0D"/>
<stop offset="0.19" stop-color="#B9F20D"/>
<stop offset="0.33" stop-color="#70F20D"/>
<stop offset="0.42" stop-color="#18F20D"/>
<stop offset="0.51" stop-color="#0DF269"/>
<stop offset="1" stop-color="#0DF2CC"/>
        </linearGradient>
    </defs>
</svg>
